<svg xmlns="http://www.w3.org/2000/svg" xmlns:xlink="http://www.w3.org/1999/xlink" width="1366" zoomAndPan="magnify" viewBox="0 0 1024.5 576" height="768" preserveAspectRatio="xMidYMid meet" version="1.0"><defs><clipPath id="038b9b7a5b"><path d="M 675.023438 376 L 1023.917969 376 L 1023.917969 506 L 675.023438 506 Z M 675.023438 376 " clip-rule="nonzero"/></clipPath><clipPath id="af8ee5123a"><path d="M 495 571 L 516 571 L 516 575.859375 L 495 575.859375 Z M 495 571 " clip-rule="nonzero"/></clipPath></defs><path fill="#1d3557" d="M 663.824219 402.78125 C 661.195312 400.273438 660.386719 400.09375 660.917969 398.566406 C 661.886719 395.808594 662.988281 391.980469 663.132812 391.875 C 664.972656 390.566406 664.140625 388.265625 665.09375 386.625 C 665.226562 386.398438 664.5625 384.703125 663.351562 387.707031 C 662.796875 389.066406 660.253906 387.429688 660.785156 384.984375 C 662.820312 375.769531 662.648438 375.625 664.152344 375.339844 C 665.265625 375.128906 665.566406 374.21875 664.671875 373.539062 C 663.414062 372.582031 664.246094 372.058594 663.507812 370.09375 C 660.832031 371.828125 662.566406 372.351562 659.863281 370.152344 C 658.535156 369.070312 659.222656 368.605469 661.355469 361.601562 C 662.070312 359.277344 664.34375 359.640625 663.050781 358.042969 C 662.78125 357.714844 662.941406 348.84375 665.386719 370.902344 C 665.398438 371.027344 667.78125 395.03125 668.074219 395.140625 C 665.484375 404.136719 665.398438 404.28125 663.824219 402.78125 Z M 661.125 413.992188 C 657.675781 410.808594 656.875 410.140625 657.382812 408.628906 C 659.609375 401.945312 659.453125 401.375 660.929688 402.597656 C 663.132812 404.453125 662.902344 403.519531 664.609375 405.84375 C 664.164062 407.769531 662.554688 415.3125 661.125 413.992188 Z M 660.894531 417.972656 C 656.425781 431.035156 656.921875 429.863281 655.664062 428.601562 C 654.636719 427.550781 653.0625 427.019531 653.207031 424.257812 C 655.992188 412.972656 656.015625 411.777344 657.054688 412.851562 C 660.253906 416.144531 661.292969 416.824219 660.894531 417.972656 Z M 658.8125 438.722656 C 657.25 441.992188 658.074219 443.046875 654.878906 439.933594 C 653.980469 439.050781 654.417969 439.027344 656.535156 433.652344 C 656.789062 433 657.09375 432.9375 657.660156 433.421875 C 660.132812 435.46875 660.214844 435.832031 658.8125 438.722656 Z M 662.140625 437.394531 C 665.179688 439.910156 667.054688 438.871094 666.292969 440.699219 C 663.292969 447.804688 664.199219 445.988281 663.0625 447.257812 C 661.597656 446.386719 658.253906 443.976562 658.898438 442.378906 C 660.917969 437.34375 660.832031 436.289062 662.140625 437.394531 Z M 662.164062 450.429688 C 660 455.792969 659.839844 457.1875 658.132812 455.734375 C 654.804688 452.902344 654.636719 452.621094 655.058594 451.628906 C 657.285156 446.363281 657.152344 445.25 658.726562 446.484375 C 662.007812 449.074219 662.613281 449.328125 662.164062 450.429688 Z M 663.195312 465.757812 C 659.863281 473.117188 660.375 473.007812 658.75 471.957031 C 655.941406 470.140625 655.398438 469.753906 655.96875 468.433594 C 660.144531 458.894531 659.003906 461.085938 659.949219 459.863281 C 665.433594 463.300781 664.320312 463.261719 663.195312 465.757812 Z M 664.78125 478.601562 C 664.683594 478.929688 664.648438 479.171875 664.550781 479.363281 C 661.753906 485.1875 661.898438 485.34375 660.457031 484.484375 C 659.308594 483.820312 656.839844 482.171875 657.613281 481.070312 C 661.644531 475.429688 658.449219 473.140625 664.78125 478.601562 Z M 663.570312 488.578125 C 665.253906 489.4375 666.800781 489.402344 665.894531 491.070312 C 663.667969 495.1875 663.570312 495.867188 662.25 495.867188 C 659.332031 493.941406 659.125 494.085938 659.625 493.042969 C 662.105469 487.886719 662.054688 487.804688 663.570312 488.578125 Z M 659.152344 503.480469 C 658.738281 504.253906 658.242188 504.363281 657.457031 503.988281 C 655.132812 502.851562 655.070312 502.730469 656.160156 500.394531 C 657.394531 497.765625 658.132812 495.054688 659.828125 495.988281 C 663.109375 497.789062 662.140625 497.742188 659.152344 503.480469 Z M 661.679688 508.722656 C 665.046875 510.019531 666.101562 510.210938 665.738281 511.070312 C 664.164062 514.789062 664.066406 514.304688 663.398438 514.835938 C 657.417969 512.113281 657.433594 512.851562 661.679688 508.722656 Z M 656.851562 511.628906 C 656.730469 511.589844 658.121094 505.839844 660.082031 508.070312 C 659.984375 508.371094 657.492188 511.820312 656.851562 511.628906 Z M 654.949219 511.09375 C 652.722656 509.910156 652.03125 510.476562 655.023438 506.375 C 655.664062 505.476562 657.648438 505.949219 656.972656 507.597656 C 655.566406 511.035156 655.664062 510.453125 654.949219 511.09375 Z M 652.675781 504.65625 C 650.699219 508.347656 650.675781 508.671875 649.816406 508.46875 C 648.535156 508.152344 647.058594 507.0625 646.523438 508.671875 C 646.160156 509.777344 647.503906 509.96875 648.472656 510.367188 C 650.375 511.15625 649.199219 510.488281 644.101562 522.136719 C 643.765625 522.933594 643.460938 521.386719 643.738281 521.398438 C 644.453125 509.316406 644.042969 509.339844 645.53125 507.585938 C 647.117188 505.71875 645.09375 505.152344 646.960938 503.054688 C 647.433594 502.523438 647.191406 501.3125 648.195312 501.410156 C 648.800781 501.46875 649.332031 502.113281 649.925781 502.453125 C 652.566406 503.976562 653.144531 503.796875 652.675781 504.65625 Z M 644.925781 502.125 C 645 499.472656 645.035156 499.898438 645.253906 499.425781 C 646.28125 500.320312 646.707031 501.191406 645.917969 502.390625 C 644.707031 504.230469 644.839844 505.210938 644.925781 502.125 Z M 645.433594 496.121094 C 645.894531 487.546875 644.902344 488.03125 650.335938 491.191406 C 651.667969 491.957031 650.785156 492.464844 648.109375 497.828125 C 647.296875 499.449219 644.730469 497.667969 645.433594 496.121094 Z M 646.101562 483.007812 C 646.621094 476.605469 646.183594 476.894531 648.4375 477.949219 C 650.589844 478.953125 649.40625 478.652344 648.28125 483.03125 C 648.207031 483.324219 648.847656 484.269531 649.355469 483.40625 C 650.710938 481.097656 650.710938 479.8125 652.019531 480.695312 C 655.289062 482.910156 656.597656 482.003906 652.929688 488.082031 C 651.355469 490.683594 650.144531 488.710938 647.566406 487.292969 C 645.664062 486.265625 646.101562 485.320312 646.101562 483.007812 Z M 655.859375 481.203125 C 650.496094 478.03125 651.742188 478.226562 654.488281 471.894531 C 655.070312 470.550781 656.28125 472.984375 658.945312 473.46875 C 660.214844 473.699219 656.742188 480.238281 655.859375 481.203125 Z M 657.09375 495.476562 C 654.382812 501.144531 653.980469 502.222656 653.144531 501.832031 C 649.515625 500.164062 648.460938 499.59375 649.175781 498.203125 C 652.492188 491.617188 651.574219 493.191406 652.40625 492.316406 C 653.425781 492.644531 657.699219 494.21875 657.09375 495.476562 Z M 653.628906 489.523438 C 654.210938 488.117188 655.433594 485.042969 656.609375 484.074219 C 660.53125 486.363281 661.039062 486.675781 660.566406 487.765625 C 658.546875 492.414062 658.304688 493.394531 657.3125 492.800781 C 655.121094 491.496094 653.183594 490.585938 653.628906 489.523438 Z M 653.085938 456.195312 C 653.496094 455.25 653.910156 454.632812 654.636719 455.238281 C 658.121094 458.140625 658.882812 458.335938 658.292969 459.644531 C 654.515625 468.117188 654.574219 468.335938 654.320312 468.398438 C 652.261719 468.867188 653.339844 470.683594 652.953125 471.582031 C 650.433594 477.367188 650.617188 477.464844 649.175781 476.582031 C 643.992188 473.433594 647.84375 468.179688 653.085938 456.195312 Z M 648.582031 449.851562 C 649.707031 450.285156 652.917969 453.035156 652.433594 454.148438 C 651.910156 455.347656 648.59375 463.421875 647.746094 464 C 647.128906 463.070312 647.84375 450.769531 648.582031 449.851562 Z M 648.253906 446.59375 C 648.253906 437.960938 647.976562 436.109375 649.042969 437.101562 C 651.921875 439.777344 652.648438 440.335938 651.984375 441.824219 C 649.902344 446.4375 649.746094 447.464844 649.175781 447.839844 C 647.722656 448.832031 647.878906 446.59375 648.253906 446.59375 Z M 656.488281 444.597656 C 653.800781 450.648438 653.691406 451.363281 652.953125 450.867188 C 651.414062 449.863281 649.707031 448.917969 650.277344 447.671875 C 652.917969 441.847656 653.253906 439.863281 656.488281 444.597656 Z M 648.535156 430.371094 C 648.957031 424.085938 648.195312 424.707031 654.609375 430.566406 C 656.125 431.957031 656.234375 431.496094 653.738281 437.453125 C 653.050781 439.113281 652.675781 437.660156 649.453125 434.875 C 648.253906 433.832031 648.535156 432.71875 648.535156 430.371094 Z M 652.164062 409.039062 C 652.625 408.023438 655.578125 409.488281 654.597656 413.109375 C 650.847656 426.957031 652.578125 422.769531 651.851562 424.292969 C 651.511719 424.984375 645.484375 423.90625 652.164062 409.039062 Z M 649.574219 410.3125 C 649.574219 406.375 649.332031 405.261719 650.347656 405.988281 C 651.707031 406.957031 651.585938 407.308594 650.121094 411.085938 C 649.539062 412.585938 649.066406 410.3125 649.574219 410.3125 Z M 651.753906 392.394531 C 656.523438 397.828125 656.0625 396.242188 653.449219 402.9375 C 652.203125 406.109375 649.746094 402.769531 649.839844 401.316406 C 650.070312 397.683594 649.730469 390.082031 651.753906 392.394531 Z M 650.882812 379.847656 C 653.789062 381.003906 653.28125 381.507812 651.246094 387.164062 C 650.277344 389.863281 650.386719 381.488281 650.882812 379.847656 Z M 652.636719 365.382812 C 654.246094 366.46875 653.800781 367.640625 651.707031 374.5 C 650.675781 377.84375 651.789062 366.921875 652.636719 365.382812 Z M 655.710938 344.925781 C 657.941406 338.238281 656.148438 336.933594 660.179688 341.609375 C 660.992188 342.550781 660.46875 342.816406 658.4375 349.824219 C 657.976562 351.398438 658.023438 353.582031 656.972656 352.453125 C 656.390625 351.824219 655.6875 350.644531 655.289062 350.90625 C 654.367188 351.492188 655.484375 353.617188 655.832031 354.023438 C 657.492188 355.972656 656.71875 356.660156 654.851562 363.0625 C 654.078125 365.742188 650.3125 361.148438 655.710938 344.925781 Z M 655.46875 335.476562 C 657.578125 335.171875 654.925781 343.558594 654.367188 343.582031 C 654.9375 335.953125 655.011719 335.542969 655.46875 335.476562 Z M 656.003906 321.546875 C 656.039062 321.40625 656.800781 321.136719 656.730469 321.757812 C 656.125 326.484375 654.988281 325.070312 656.003906 321.546875 Z M 656.292969 305.027344 C 656.464844 302.269531 657.808594 303.214844 656.667969 306.6875 C 655.992188 304.84375 656.015625 305.117188 656.292969 305.027344 Z M 657.675781 286.726562 C 657.832031 285.902344 657.480469 285.597656 657.660156 282.964844 C 657.675781 282.703125 658.132812 282.359375 658.21875 283.070312 C 660.761719 304.960938 654.066406 305.429688 657.675781 286.726562 Z M 655.882812 271.359375 C 654.503906 270.824219 654.574219 270.933594 652.359375 269.585938 C 655.375 267.894531 667.792969 267.367188 662.589844 269.105469 C 661.949219 269.316406 661.183594 269.445312 660.726562 269.875 C 659.367188 271.148438 657.660156 271.027344 655.882812 271.359375 Z M 668.195312 271.4375 C 668.253906 271.429688 671.136719 272.207031 676.898438 271.957031 C 680.953125 271.78125 680.058594 272.566406 684.5625 272.515625 C 686.136719 272.496094 685.386719 272.144531 687.214844 273.242188 C 681.367188 275.371094 685.480469 276.820312 687.347656 276.265625 C 689.285156 275.675781 690.953125 276.519531 692.710938 276.976562 C 693.835938 277.269531 691.378906 279.464844 692.792969 292.421875 C 693.035156 294.695312 667.480469 313.546875 663.449219 315.230469 C 660.773438 316.347656 661.257812 309.410156 662.625 306.558594 C 663.304688 305.132812 663.195312 303.851562 661.765625 304.511719 C 660.820312 304.945312 661.148438 304.539062 660.980469 300.226562 C 660.675781 292.050781 660.324219 292.488281 661.65625 293.050781 C 662.6875 293.492188 663.230469 292.878906 663.121094 292.070312 C 662.941406 290.597656 659.804688 288.863281 659.890625 283.390625 C 659.914062 281.984375 659.140625 280.835938 659.757812 279.148438 C 661.316406 274.949219 651.621094 271.691406 668.195312 271.433594 Z M 697.566406 299.226562 C 761.523438 325.851562 805.382812 333.445312 807.222656 335.984375 C 803.929688 338.289062 768.363281 334.90625 761.269531 335.59375 C 742.199219 337.433594 755.917969 333.246094 749.886719 332.707031 C 733.410156 331.242188 743.761719 332.550781 732.792969 332.433594 C 729.089844 332.394531 734.125 328.675781 728.945312 325.585938 C 724.972656 323.21875 725.105469 330.347656 721.246094 328.785156 C 718.460938 327.648438 715.507812 327.691406 712.660156 327.070312 C 710.179688 326.535156 713.410156 323.808594 709.5625 323.566406 C 708.085938 323.476562 707.660156 321.59375 706.582031 323.285156 C 704.164062 327.0625 703.605469 327.671875 702.226562 327.382812 C 679.296875 322.679688 682.539062 320.152344 672.601562 317.949219 C 662.554688 315.722656 663.800781 317.222656 675.105469 309.320312 C 701.679688 290.753906 688.144531 295.304688 697.566406 299.226562 Z M 722.976562 368.683594 C 725.734375 368.683594 728.132812 370.097656 728.046875 372.996094 C 727.480469 390.382812 731.933594 389.4375 716.742188 388.519531 C 713.835938 388.335938 708.121094 386.363281 702.054688 387.308594 C 698.460938 387.867188 700.6875 384.128906 698.75 385.261719 C 697.792969 385.808594 697.941406 368.316406 697.941406 367.230469 C 697.953125 365.261719 697.46875 365.460938 704.902344 364.386719 C 712.710938 363.261719 713.679688 368.667969 722.976562 368.683594 Z M 702.285156 402.609375 C 700.738281 402.550781 699.234375 402.695312 699.972656 401.097656 C 701.339844 398.132812 700.082031 398.046875 700.15625 392.476562 C 700.167969 391.582031 701.777344 390.515625 702.734375 390.890625 C 704.175781 391.472656 713.253906 390.191406 712.589844 392.550781 C 712.042969 394.464844 711.703125 395.285156 710.507812 395.480469 C 708.207031 395.855469 708.894531 399.089844 710.25 399.332031 C 713.074219 399.863281 713.992188 399.316406 713.933594 400.527344 C 713.859375 402.332031 717.636719 402.984375 719.429688 402.742188 C 721.257812 402.5 723.144531 399.910156 721.21875 398.808594 C 717.953125 396.933594 716.886719 397.972656 717.042969 395.660156 C 717.238281 392.792969 715.941406 392.246094 717.539062 392.101562 C 719.210938 391.957031 727.769531 390.832031 727.25 393.023438 C 726.59375 395.746094 727.503906 398.398438 727.613281 401.085938 C 727.832031 407.136719 728.882812 403.617188 702.285156 402.609375 Z M 660.445312 326.882812 C 661.136719 324.3125 661.4375 330.710938 661.183594 330.730469 C 661.378906 333.097656 662.238281 340.476562 660.386719 338.5625 C 657.710938 335.796875 657.796875 336.808594 660.445312 326.882812 Z M 659.476562 324.183594 C 657.492188 332.933594 657.324219 336.140625 655.785156 331.714844 C 658.546875 319.023438 659.9375 322.101562 659.476562 324.183594 Z M 660.410156 319.976562 C 660.214844 320.277344 660.324219 320.265625 659.949219 319.96875 C 660.226562 319.75 660.105469 319.738281 660.410156 319.976562 Z M 658.933594 313.125 C 658.617188 314.226562 657.007812 314.242188 657.261719 312.832031 C 658.449219 306.273438 658.703125 304.898438 660 308.632812 C 659.636719 310.230469 659.34375 311.695312 658.933594 313.125 Z M 658.398438 366.472656 C 657.78125 368.9375 655.457031 365.488281 655.871094 364.257812 C 658.132812 357.484375 658.011719 356.925781 659.355469 358.007812 C 661.269531 359.558594 660.023438 360.089844 658.398438 366.472656 Z M 658.65625 384.503906 C 654.914062 380.765625 654.890625 380.6875 655.167969 379.921875 C 657.40625 373.738281 658.207031 371.277344 658.8125 371.804688 C 659.660156 372.53125 661.378906 373.921875 661.597656 374.867188 C 659.648438 383.71875 659.636719 385.484375 658.65625 384.503906 Z M 657.554688 396.109375 C 660.058594 387.960938 659.550781 388.324219 660.832031 388.894531 C 663.023438 389.839844 662.710938 389.136719 659.757812 397.042969 C 659.089844 398.796875 658.425781 397.769531 657.554688 396.109375 Z M 658.097656 400.128906 C 658.761719 401.75 656.839844 403.386719 656.71875 406.570312 C 656.574219 410.203125 653.328125 406.640625 653.789062 405.445312 C 655.542969 400.855469 656.621094 396.519531 658.097656 400.128906 Z M 652.238281 376.925781 C 654.804688 367.1875 654.730469 367.023438 655.820312 368.3125 C 657.46875 370.261719 657.226562 370.558594 656.949219 371.300781 C 654.988281 376.554688 653.292969 382.484375 652.238281 376.925781 Z M 654.867188 383.367188 C 659.234375 387.261719 658.292969 386.460938 658.738281 387.476562 C 656.71875 393.820312 657.03125 395.492188 655.699219 394.171875 C 652.082031 390.554688 651.414062 390.019531 651.984375 388.410156 C 653.738281 383.441406 653.882812 382.496094 654.867188 383.367188 Z M 662.796875 350.527344 C 661.886719 359.949219 658.519531 355.933594 659.03125 353.953125 C 662.203125 341.550781 662.042969 343.53125 662.796875 350.527344 Z M 649.925781 270.617188 C 651.28125 269.816406 650.980469 269.867188 651.292969 270.308594 C 649.949219 271.140625 650.253906 271.085938 649.925781 270.617188 Z M 729.464844 395.878906 C 730.058594 397.273438 730.214844 398.214844 730.785156 398.070312 C 731.933594 397.78125 729.164062 391.558594 731.546875 391.691406 C 732.734375 391.765625 732.539062 392.851562 732.273438 394.0625 C 730.894531 400.515625 733.023438 404.367188 729.902344 403.542969 C 729.136719 403.335938 728.167969 392.851562 729.464844 395.878906 Z M 730.84375 372.402344 C 732.261719 372.253906 732.25 372.21875 732.226562 373.652344 C 732.117188 383.214844 732.964844 391.65625 730.722656 388.484375 C 730.167969 387.707031 730.09375 388 729.972656 373.964844 C 729.972656 373.367188 729.78125 372.523438 730.84375 372.402344 Z M 736.546875 371.046875 C 738.824219 370.625 737.394531 377.074219 738.085938 386.824219 C 738.144531 387.746094 736.570312 389.039062 735.773438 388.628906 C 734.511719 388.011719 734.730469 371.382812 736.546875 371.046875 Z M 738.046875 393.242188 C 737.878906 392.140625 736.609375 393.132812 736.546875 392.066406 C 736.460938 390.359375 740.347656 390.6875 738.046875 393.242188 Z M 738.519531 399.183594 C 738.351562 398.953125 738.179688 398.726562 738.074219 398.578125 C 739.378906 391.265625 739.234375 397.730469 738.519531 399.183594 Z M 739.488281 381.363281 C 739.441406 381.855469 738.96875 381.625 738.957031 381.359375 C 738.785156 371.824219 740.722656 370.398438 739.488281 381.363281 Z M 663.074219 337.230469 C 661.691406 319.085938 661.332031 320.035156 664.828125 320.671875 C 680.664062 323.539062 691.558594 330.105469 702.082031 330.214844 C 706.488281 330.257812 705.84375 331.625 711.65625 332.117188 C 715.601562 332.449219 714.875 330.105469 714.804688 344.886719 C 714.695312 362.828125 715.347656 360.945312 712.820312 360.261719 C 709.753906 359.433594 709.378906 358.386719 700.117188 359.714844 C 692.1875 360.855469 695.917969 366.875 696.257812 376.238281 C 696.644531 386.433594 696.304688 388.675781 697.152344 389.378906 C 699.914062 391.679688 696.039062 411.144531 699.066406 408.3125 C 701.960938 405.601562 704.210938 408.167969 706.71875 407.429688 C 711.304688 406.074219 715.046875 409.449219 718.738281 408.398438 C 719.960938 408.046875 721.824219 409.050781 725.070312 408.324219 C 729.550781 407.308594 727.128906 410.105469 730.371094 408.179688 C 741.753906 401.425781 741.148438 402.164062 740.882812 399.777344 C 740.226562 393.785156 746.125 386.628906 742.175781 386.480469 C 741.074219 386.445312 741.28125 384.648438 741.4375 382.523438 C 741.875 376.332031 740.734375 373.289062 742.722656 374.089844 C 743 374.199219 743.605469 374.183594 743.675781 374.03125 C 746.582031 368.207031 741.367188 371.503906 742.078125 367.371094 C 742.164062 366.875 742.042969 365.96875 741.765625 365.855469 C 740.46875 365.324219 740.894531 368.550781 739.175781 367.25 C 733.570312 363.015625 736.003906 364.636719 733.664062 362.816406 C 731.753906 361.335938 731.800781 363.441406 730.335938 363.410156 C 721.863281 363.238281 728.035156 361.230469 717.671875 361.199219 C 713.449219 361.191406 718.992188 358.085938 716.765625 355.054688 C 716.355469 354.5 717.78125 335.507812 717.976562 334.734375 C 718.59375 332.25 725.023438 334.5 727.46875 335.269531 C 728.398438 335.570312 729.269531 334.910156 730.105469 334.960938 C 731.039062 335.011719 731.921875 335.503906 732.953125 335.269531 C 742.976562 332.988281 739.660156 336.367188 770.46875 338.957031 C 808.738281 342.164062 811.253906 336.664062 819.863281 338.792969 C 820.832031 339.03125 827.019531 340.46875 828.675781 340.039062 C 825.46875 338.167969 817.828125 338.941406 821.835938 337.035156 C 832.925781 331.761719 871.894531 341.558594 982.378906 298.984375 C 998.566406 292.75 996.421875 293.515625 997.003906 291.964844 C 989.304688 291.636719 975.25 306.519531 901.519531 322.648438 C 837.125 336.746094 879.183594 326.394531 820.238281 334.808594 C 809.171875 336.382812 813.324219 336.515625 792.925781 330.546875 C 787.019531 328.816406 716.234375 308.722656 738.691406 313.109375 C 735.710938 310.453125 733.679688 311.1875 729.101562 308.746094 C 697.503906 291.917969 696.875 298.003906 696.101562 289.113281 C 694.949219 275.824219 695.457031 275.449219 694.40625 275.609375 C 693.339844 275.777344 693.546875 275.203125 693.738281 274.613281 C 694.5 272.394531 691.824219 274.183594 692.175781 270.839844 C 692.382812 268.820312 691.136719 270.441406 690.070312 269.824219 C 687.671875 268.417969 685.335938 269.046875 683.011719 268.597656 C 682.769531 268.550781 682.699219 267.929688 683.171875 268 C 689.175781 268.917969 682.78125 266.066406 678.8125 266.613281 C 675.605469 267.050781 673.207031 266.152344 667.527344 265.828125 C 651.269531 264.890625 652.976562 268.367188 645.375 268.476562 C 636.171875 268.601562 629.925781 274.058594 624.792969 272.109375 C 624.128906 271.855469 623.910156 272.191406 624.101562 272.945312 C 624.539062 274.597656 625.53125 274.601562 620.578125 278.863281 C 615.941406 282.863281 618.292969 287.546875 618.351562 293.238281 C 618.351562 293.363281 617.976562 303.164062 616.828125 304.128906 C 597.613281 320.4375 569.390625 328.308594 575.242188 328.144531 C 577.214844 328.085938 589.707031 323.859375 607.503906 313.449219 C 613.414062 309.988281 617.648438 305.398438 619.34375 305.398438 C 623.546875 305.394531 638.886719 309.546875 635.628906 307.335938 C 626.332031 301.019531 619.441406 306.382812 620.53125 303.011719 C 623.96875 292.410156 616.910156 281.257812 628.898438 279.503906 C 629.78125 279.371094 629.164062 277.222656 622.371094 281.300781 C 621.089844 282.070312 619.792969 284.34375 619.960938 285.765625 C 620.058594 286.625 616.535156 284.65625 624.613281 277.863281 C 628.75 274.382812 633.074219 274.433594 635.3125 274.117188 C 636.839844 273.898438 635.335938 272.074219 636.9375 272.996094 C 638.460938 273.878906 637.625 273.191406 638.8125 271.835938 C 639.585938 272.890625 638.980469 273.394531 640.15625 273.34375 C 640.445312 273.332031 642.421875 273.238281 642.433594 272.753906 C 642.445312 271.699219 641.269531 272.207031 640.820312 272.0625 C 638.558594 271.355469 646.707031 270.589844 647.660156 271.269531 C 646.632812 271.996094 644.515625 271.382812 643.402344 272.394531 C 644.609375 273.410156 651.304688 271.695312 647.238281 274.324219 C 650.566406 273.824219 651.039062 274.113281 651.558594 273.09375 C 651.621094 272.996094 651.960938 272.90625 651.996094 272.957031 C 654.089844 275.222656 657.660156 270.097656 657.054688 276.078125 C 656.101562 285.347656 654.949219 301.621094 654.660156 311.371094 C 654.585938 313.761719 653.921875 312.679688 639.394531 306.855469 C 637.6875 306.167969 635.023438 308.5 637.457031 310.402344 C 638.023438 310.839844 646.863281 315.707031 652.335938 317.183594 C 654.5625 317.785156 654.019531 317.875 654.296875 319.84375 C 654.476562 321.1875 620.796875 343.949219 609.453125 347.230469 C 604.25 348.734375 606.453125 348.957031 606.898438 348.851562 C 619.78125 345.867188 645.484375 331.046875 653.703125 322.445312 C 655.144531 328.523438 651.679688 354.5 650.457031 360.902344 C 650.445312 361.019531 649.839844 384.257812 647.675781 399.402344 C 647.285156 402.164062 641.71875 394.679688 635.859375 394.292969 C 605.472656 392.246094 647.117188 371.097656 513.984375 472.570312 C 508.789062 476.53125 507.277344 469.898438 496.410156 473.175781 C 492.792969 474.265625 468.066406 502.558594 471.054688 504.652344 C 473.648438 506.480469 489.089844 470.707031 505.5 477.933594 C 510.457031 480.113281 512.65625 476.992188 525.730469 466.277344 C 532.667969 460.585938 610.835938 398.542969 616.003906 395.203125 C 619.054688 393.214844 618.898438 394.984375 619.597656 395.066406 C 622.347656 395.335938 622.347656 398.117188 624.007812 400.359375 C 626.683594 403.992188 627.734375 404.777344 628.292969 406.132812 C 629.988281 410.296875 637.082031 411.664062 637.273438 410.140625 C 637.503906 408.265625 632.261719 409.402344 627.433594 397.320312 C 632.082031 396.410156 648.679688 402.125 648.4375 406.582031 C 648.363281 407.78125 647.769531 416.652344 647.578125 416.824219 C 646.839844 417.453125 647.191406 417.828125 647.539062 418.542969 C 647.820312 419.085938 647.324219 420.019531 647.175781 420.78125 C 645.144531 421.277344 647.324219 423.261719 647.335938 424.316406 C 647.359375 427.777344 646.050781 453.796875 646.160156 464.375 C 646.234375 472.074219 643.414062 472.886719 645.203125 474.277344 C 645.640625 474.628906 643.425781 507.351562 642.480469 509.460938 C 641.839844 510.875 643.449219 511.203125 642.808594 513.394531 C 642.648438 513.925781 642.6875 513.964844 642.03125 521.273438 C 641.777344 524.023438 639.71875 515.925781 641.234375 528.429688 C 641.304688 528.988281 641.390625 528.914062 642.554688 529.566406 C 643.195312 528.308594 642.988281 529.59375 643.171875 525.476562 C 643.265625 523.210938 644.089844 525.546875 645.457031 522.96875 C 651.257812 512.039062 650.738281 511.457031 652.6875 512.484375 C 656.574219 514.542969 648.121094 520.753906 650.203125 524.90625 C 650.566406 524.6875 651.074219 524.566406 651.292969 524.253906 C 658.316406 513.695312 655.046875 514.011719 660.398438 516.382812 C 663.414062 517.714844 662.203125 516.894531 662.054688 519.421875 C 661.949219 521.3125 662.566406 520.777344 663.738281 520.136719 C 664.1875 519.894531 664.261719 517.980469 666.34375 518.816406 C 685.738281 526.648438 680.554688 518.019531 678.011719 519.097656 C 676.71875 519.640625 674.914062 518.960938 673.023438 518.308594 C 665.796875 515.792969 664.9375 515.886719 665.617188 514.582031 C 667.019531 511.84375 667.371094 511.035156 668.121094 511.25 C 671.304688 512.195312 672.214844 512.558594 672.128906 514.191406 C 672.042969 515.597656 673.714844 515.972656 673.824219 514.289062 C 673.910156 512.910156 675.664062 512.824219 675.542969 511.410156 C 675.398438 509.675781 676.207031 508.792969 677.660156 505.65625 C 679.320312 502.0625 678.0625 501.785156 676.292969 505.089844 C 674.152344 509.058594 673.957031 510.730469 672.203125 510.246094 C 669.246094 509.449219 668.339844 509.230469 668.921875 508.007812 C 669.648438 506.503906 676.476562 492.921875 675.265625 492.257812 C 674.113281 491.628906 673.847656 494.195312 667.554688 507.230469 C 666.828125 508.746094 665.859375 507.898438 660.628906 505.5625 C 659.671875 505.125 660.023438 504.796875 662.3125 500.296875 C 664.078125 496.820312 666.449219 499.703125 667.46875 498.441406 C 665.09375 497.085938 663.777344 497.085938 664.960938 494.957031 C 667.625 490.136719 667.347656 490.367188 668.496094 489.992188 C 669.890625 489.53125 670.808594 489.800781 670.941406 488.660156 C 671.003906 488.214844 669.792969 488.105469 669.671875 488.066406 C 667.636719 487.535156 674.285156 480.367188 672.78125 479.546875 C 671.074219 478.601562 669.101562 488.429688 666.511719 487.402344 C 663.605469 486.238281 662.890625 486.070312 663.339844 485.175781 C 668.375 475.089844 665.917969 480.839844 669.984375 479.882812 C 669.246094 477.488281 666.148438 479.921875 667.625 476.058594 C 669.234375 471.832031 668.195312 472.535156 666.65625 475.015625 C 665.53125 476.796875 665.542969 476.796875 663.605469 475.707031 C 660.132812 473.746094 661.246094 473.417969 662.445312 470.914062 C 665.761719 464.011719 665.578125 463.699219 666.777344 464.824219 C 667.941406 465.890625 674.332031 468.164062 674.488281 465.660156 C 674.527344 464.992188 674.003906 464.253906 673.4375 464.351562 C 671.246094 464.738281 669.585938 463.417969 667.769531 462.667969 C 666.125 461.980469 666.8125 461.941406 671.328125 451.785156 C 672.648438 448.820312 671.222656 448.832031 670.578125 450.152344 C 664.453125 462.632812 666.851562 462.148438 661.609375 458.660156 C 660.421875 457.875 660.628906 457.367188 663.097656 452.148438 C 663.933594 450.382812 664.742188 452.113281 666.355469 452.511719 C 668.023438 452.921875 668.507812 450.972656 667.070312 450.210938 C 664.320312 448.769531 664.332031 448.746094 664.902344 447.304688 C 667.214844 441.386719 667.445312 440.625 668.871094 440.117188 C 669.441406 439.910156 669.890625 439.109375 669.355469 438.53125 C 668.230469 437.28125 672.769531 427.390625 667.625 437.078125 C 666.949219 438.359375 665.90625 437.332031 663.050781 435.296875 C 660.917969 433.796875 668.035156 422.804688 666.160156 422.078125 C 665.773438 421.917969 664.828125 423.722656 664.539062 424.449219 C 660.773438 433.820312 661.292969 434.292969 659.101562 432.089844 C 657.164062 430.152344 657.382812 432.257812 661.996094 419.316406 C 662.78125 417.125 669.273438 423.953125 668.859375 420.539062 C 668.75 419.691406 668.375 419.328125 664.078125 416.859375 C 662.613281 416.011719 662.953125 415.695312 665.894531 407.5 C 666.316406 406.351562 667.808594 406.570312 667.203125 405.539062 C 666.113281 403.652344 667.929688 400.757812 668.230469 400.976562 C 668.691406 401.316406 669.9375 417.296875 670.023438 418.519531 C 674.9375 488.382812 687.261719 528.078125 682.769531 528.273438 C 679.054688 528.429688 673.292969 532.027344 673.292969 534.941406 C 675.773438 534.640625 676.0625 530.742188 681.328125 531.140625 C 684.609375 531.382812 687.457031 528.054688 685.980469 526.890625 C 682.808594 524.386719 663.085938 337.359375 663.074219 337.226562 " fill-opacity="1" fill-rule="nonzero"/><g clip-path="url(#038b9b7a5b)"><path fill="#1d3557" d="M 1009.910156 403.011719 C 1008.335938 403.457031 1008.636719 403.617188 1008.492188 402.113281 C 1008.6875 400.324219 1007.789062 400.746094 1017.546875 399.113281 C 1018.734375 398.90625 1018.285156 400.578125 1009.910156 403.011719 Z M 1008.285156 394.402344 C 1008.070312 393.21875 1009.265625 393.472656 1010.210938 393.75 C 1009.484375 394.355469 1008.46875 395.457031 1008.285156 394.402344 Z M 1005.285156 402.332031 C 1005.164062 404.707031 1005.140625 404.609375 1002.910156 405.203125 C 1000.71875 405.796875 996.242188 405.917969 994.460938 404.5625 C 998.625 401.691406 1002.609375 403.773438 1002.003906 401.207031 C 1001.761719 400.152344 1001.519531 399.246094 1000.101562 399.777344 C 1000.054688 399.804688 999.824219 399.574219 999.824219 399.476562 C 999.910156 397.222656 1002.546875 398.640625 1003.394531 398.894531 C 1005.367188 399.511719 1005.394531 399.898438 1005.285156 402.332031 Z M 991.363281 411.316406 C 993.6875 408.082031 993.394531 408.300781 994.847656 408.605469 C 996.785156 409.015625 999.109375 407.71875 1000.792969 408.808594 C 995.5625 410.03125 989.898438 413.351562 991.363281 411.316406 Z M 993.226562 402.902344 C 991.714844 402.746094 992.160156 402.707031 992.898438 402.332031 C 994.765625 402.441406 993.601562 402.9375 993.226562 402.902344 Z M 996 402.113281 C 996.277344 402.042969 996.53125 401.945312 996.808594 401.921875 C 998.191406 401.726562 996.3125 402.660156 996 402.113281 Z M 997.34375 399.148438 C 991.992188 400.128906 993.203125 399.960938 992.160156 399.089844 C 994.097656 396.898438 999.21875 398.808594 997.34375 399.148438 Z M 988.433594 395.578125 C 984.230469 395.128906 987.039062 393.90625 988.84375 394.066406 C 989.160156 394.089844 989.449219 394.574219 989.738281 394.863281 C 989.535156 395.03125 988.382812 395.988281 988.433594 395.578125 Z M 980.914062 417.210938 C 980.273438 417.914062 979.875 417.707031 979.425781 417.707031 C 980.855469 414.234375 988.382812 412.925781 989.109375 413.046875 C 986.738281 415.09375 983.238281 414.667969 980.914062 417.210938 Z M 984.859375 406.339844 C 985.492188 406.8125 987.320312 407.878906 985.839844 408.253906 C 983.566406 408.808594 984.535156 409.851562 981.75 408.578125 C 980.671875 408.09375 983.191406 406.472656 984.859375 406.339844 Z M 965.101562 428.214844 C 965.054688 426.871094 965.828125 426.425781 965.078125 425.648438 C 967.210938 424.003906 967.765625 424.597656 968.191406 422.878906 C 968.652344 421.039062 966.046875 421.484375 975.839844 417.683594 C 980.683594 419.730469 965.382812 428.167969 965.101562 428.214844 Z M 965.359375 419.304688 C 965.382812 419.28125 965.585938 419.464844 965.585938 419.464844 C 965.441406 419.679688 965.285156 419.886719 965.128906 420.09375 C 964.777344 419.8125 964.644531 419.910156 965.359375 419.304688 Z M 969.183594 413.335938 C 969.039062 414.71875 970.066406 414.0625 972.269531 414.269531 C 973.046875 414.355469 973.953125 415.941406 968.820312 416.023438 C 965.285156 416.074219 965.320312 420.019531 964.242188 415.976562 C 964.96875 414.765625 969.402344 411.21875 969.183594 413.335938 Z M 968.214844 410.589844 C 967.65625 411.085938 966.957031 411.824219 966.058594 412.210938 C 964.484375 412.914062 964.765625 412.816406 964.316406 411.582031 C 964.160156 409.234375 966.144531 409.402344 968.214844 410.589844 Z M 972.742188 409.015625 C 974.132812 409.886719 973.503906 408.835938 976.144531 409.183594 C 974.414062 410.25 972.257812 410.3125 972.246094 410.191406 C 969.910156 410.433594 970.695312 407.734375 972.742188 409.015625 Z M 961.445312 418.324219 C 961.363281 418.203125 960.210938 415.042969 961.980469 418.046875 C 961.824219 418.3125 961.714844 418.710938 961.445312 418.324219 Z M 956.929688 423.15625 C 955.296875 422.441406 955.976562 423.566406 950.296875 424.414062 C 949.390625 424.546875 948.867188 423.265625 949.875 422.683594 C 950.480469 422.332031 952.707031 421.339844 952.9375 422.078125 C 953.578125 424.148438 957.1875 420.601562 961.507812 421.339844 C 960.042969 422.101562 961.351562 421.605469 956.929688 423.15625 Z M 953.15625 427.902344 C 953.09375 428.023438 949.414062 429.4375 952.839844 427.042969 C 953.457031 427.394531 953.53125 427.199219 953.15625 427.902344 Z M 951.167969 417.199219 C 952.257812 417.792969 953.878906 419.171875 952.1875 420.164062 C 949.679688 421.628906 948.867188 420.6875 948.796875 418.324219 C 949.292969 416.449219 948.894531 415.953125 951.167969 417.199219 Z M 955.613281 419.4375 C 955.199219 419.621094 954.921875 419.742188 954.621094 419.851562 C 954.605469 419.851562 954.4375 419.523438 954.460938 419.511719 C 955.261719 418.90625 955.152344 419.101562 955.613281 419.4375 Z M 956.96875 416.253906 C 959.484375 417.1875 955.199219 417.527344 954.402344 415.855469 C 954.875 415.722656 954.703125 415.417969 956.96875 416.253906 Z M 946.011719 436.167969 C 942.488281 438.433594 945.078125 438.214844 938.503906 439.148438 C 937.5625 438.324219 939.847656 439.21875 942.015625 435.976562 C 942.464844 435.308594 943.117188 434.863281 944.050781 434.984375 C 944.460938 435.03125 944.921875 434.679688 945.34375 434.691406 C 946.421875 434.730469 947.210938 435.394531 946.011719 436.167969 Z M 936.097656 440.296875 C 930.261719 443.542969 931.570312 443.929688 921.496094 445.273438 C 920.734375 445.285156 920.226562 445.199219 920.226562 444.257812 C 920.238281 440.359375 914.898438 443.542969 916.8125 441.789062 C 918.3125 440.40625 918.917969 439.644531 919.59375 440.066406 C 924.195312 442.9375 935.769531 439.257812 935.890625 439.234375 C 936.144531 439.183594 937.28125 439.632812 936.097656 440.296875 Z M 898.882812 445.503906 C 894.5 444.339844 892.71875 447.136719 899.933594 440.820312 C 901.773438 439.207031 903.410156 443.652344 908.699219 441.496094 C 910.964844 440.578125 914.777344 442.550781 898.882812 445.503906 Z M 903.070312 451.640625 C 902.648438 451.738281 900.976562 451.824219 896.398438 452.1875 C 896.351562 452.1875 894.777344 452.5 894.753906 452.464844 C 893.84375 450.394531 896.96875 451.449219 899.160156 449.328125 C 896.386719 449.425781 897.597656 449.609375 895.441406 449.945312 C 894.863281 450.042969 894.257812 449.5 895.007812 448.722656 C 895.117188 448.601562 901.824219 445.417969 901.507812 448.855469 C 901.386719 450.128906 901.4375 450.175781 902.632812 449.765625 C 906.277344 448.480469 905.214844 451.144531 903.070312 451.640625 Z M 896.761719 441.96875 C 894.960938 442.914062 894.945312 442.550781 894.316406 442.390625 C 895.152344 439.851562 898.335938 441.15625 896.761719 441.96875 Z M 904.488281 436.496094 C 911.640625 436.167969 913.832031 440.722656 904.21875 437.816406 C 902.753906 437.378906 904.234375 436.496094 904.488281 436.496094 Z M 890.429688 453.191406 C 889.933594 452.851562 889.558594 452.753906 890.394531 452.5 C 891.8125 452.066406 892.320312 452.765625 890.429688 453.191406 Z M 876.789062 453.519531 C 876.460938 453.335938 876.074219 453.25 876.691406 452.730469 C 878.058594 451.605469 879.789062 452.949219 876.789062 453.519531 Z M 876.386719 457.550781 C 875.964844 457.417969 875.601562 457.550781 876.871094 456.542969 C 876.933594 456.496094 877.136719 456.640625 877.257812 456.691406 C 876.957031 456.992188 876.640625 457.296875 876.386719 457.550781 Z M 872.742188 444.570312 C 873.796875 443.589844 873.386719 443.734375 874.269531 444.183594 C 873.179688 445.09375 873.554688 444.921875 872.742188 444.570312 Z M 872.878906 450.625 C 869.136719 451.640625 864.328125 447.78125 868.082031 448.335938 C 874.316406 448.785156 874.148438 450.273438 872.878906 450.625 Z M 867.949219 457.660156 C 865.757812 457.523438 866.910156 456.679688 867.730469 456.90625 C 869.535156 457.429688 868.917969 457.390625 867.949219 457.660156 Z M 863.203125 462.753906 C 859.234375 462.9375 858.53125 462.234375 857.246094 462.949219 C 856.351562 463.46875 856.035156 460.03125 857.078125 459.0625 C 857.152344 459.003906 857.585938 459.183594 857.574219 459.21875 C 857.101562 462.148438 858.433594 460.683594 863.359375 461.824219 C 864.074219 461.980469 863.53125 462.742188 863.203125 462.753906 Z M 856.363281 470.222656 C 855.976562 469.339844 856.398438 468.261719 857.019531 469.28125 C 856.484375 470.238281 856.667969 469.96875 856.363281 470.222656 Z M 849.644531 460.855469 C 849.707031 460.5625 849.910156 460.429688 854.027344 459.910156 C 854.742188 459.8125 854.851562 461.195312 854.984375 461.894531 C 855.117188 464.097656 849.597656 461.074219 849.644531 460.855469 Z M 841.292969 476.785156 C 841.195312 476.6875 841.011719 476.566406 841.023438 476.484375 C 841.160156 475.84375 841.570312 476.324219 841.691406 476.421875 C 841.507812 476.582031 841.402344 476.675781 841.292969 476.785156 Z M 838.75 466.070312 C 837.597656 466.121094 831.777344 464.558594 834.160156 464.003906 C 841.535156 462.296875 840.527344 466 838.75 466.070312 Z M 838.109375 473.929688 C 834.609375 473.566406 837.683594 472.050781 839.679688 472.875 C 839.089844 473.988281 839.535156 473.84375 838.109375 473.929688 Z M 842.5625 469.304688 C 841.472656 469.886719 841.847656 469.875 841.121094 469.304688 C 841.871094 468.675781 841.496094 468.6875 842.5625 469.304688 Z M 828.375 412.585938 C 825.226562 411.726562 825.082031 413.992188 822.175781 412.210938 C 820.820312 411.386719 816.339844 410.722656 814.851562 410.566406 C 812.40625 410.3125 810.433594 407.585938 807.5625 406.910156 C 806.738281 406.714844 803.699219 405.433594 803.894531 404.683594 C 824.558594 408.472656 836.402344 414.789062 828.375 412.585938 Z M 914.824219 434.390625 C 914.0625 434.390625 913.855469 434.0625 913.882812 433.324219 C 914.039062 427.5 920.285156 434.355469 914.824219 434.390625 Z M 930.492188 427.890625 C 930.332031 427.695312 929.292969 426.691406 929.582031 426.425781 C 931.046875 425.105469 931.640625 429.28125 930.492188 427.890625 Z M 934.160156 421.980469 C 934.863281 422.878906 935.890625 423.847656 934.824219 424.015625 C 934.0625 424.125 933.324219 423.628906 934.160156 421.980469 Z M 945.867188 424.257812 C 943.46875 423.203125 944.148438 422.828125 944.28125 422.527344 C 944.984375 422.585938 945.480469 422.660156 945.988281 422.660156 C 947.5 422.695312 946.070312 424.355469 945.867188 424.257812 Z M 1022.65625 398.847656 C 1019.8125 400.070312 1020.394531 400.601562 1022.535156 397.117188 C 1023.105469 396.183594 1021.710938 395.589844 1020.550781 395.007812 C 1017.863281 393.628906 1018.335938 394.839844 1020.078125 392.453125 C 1021.785156 390.128906 1019.824219 389.621094 1018.054688 389.066406 C 1015.625 388.289062 1016.894531 387.359375 1017.476562 381.800781 C 1017.695312 379.707031 1017.828125 375.152344 1016.554688 376.835938 C 1012.488281 382.203125 1016.628906 383.257812 1013.722656 387.371094 C 1012.257812 389.441406 1013.371094 391.269531 1009.847656 391.449219 C 1007.851562 391.546875 1008.578125 390.964844 1008.710938 385.394531 C 1008.941406 375.445312 1006.796875 380.484375 1006.738281 381.035156 C 1005.625 392.101562 1006.386719 391.28125 1003.757812 390.503906 C 1002.9375 390.261719 1002.609375 392.175781 1003.964844 392.539062 C 1007.101562 393.351562 1005.960938 396.582031 1003.117188 394.683594 C 999.339844 392.175781 1003.601562 397.078125 992.34375 395.335938 C 993.3125 393.132812 992.972656 394.148438 993.636719 393.300781 C 997.414062 388.410156 992.101562 387.914062 992.621094 384.554688 C 993.300781 380.246094 991.773438 380.222656 991.035156 381.859375 C 987.222656 390.25 992.257812 391.304688 987.597656 392.261719 C 984.957031 392.804688 979.195312 397.261719 988.664062 398.21875 C 989.957031 398.351562 989.789062 399.9375 988.675781 399.898438 C 985.960938 399.816406 984.558594 399.160156 983.480469 400.664062 C 982.609375 401.875 981.75 402.988281 982.585938 403.699219 C 983.445312 404.414062 983.480469 404.390625 982.546875 404.875 C 979.617188 406.414062 978.566406 407.417969 979.039062 401.777344 C 979.558594 395.699219 982.246094 396.921875 981.097656 394.039062 C 979.546875 390.191406 980.382812 388.664062 979.195312 386.539062 C 974.898438 389.816406 979.632812 397.695312 975.054688 396.667969 C 972.65625 396.132812 970.855469 399.453125 973.652344 400.710938 C 974.21875 400.976562 975.152344 401.160156 975.476562 401.269531 C 977.269531 401.886719 977.488281 404.898438 975.355469 404.996094 C 975.019531 405.019531 974.375 405.238281 973.941406 405.976562 C 974.472656 406.195312 977.910156 406.242188 976.460938 406.957031 C 976.046875 407.164062 971.808594 407.597656 970.613281 405.433594 C 967.972656 407.5625 971.675781 407.671875 967.972656 407.453125 C 966.664062 407.382812 965.828125 407.550781 966.15625 406.28125 C 966.96875 403.132812 964.957031 403.277344 964.402344 398.421875 C 964.136719 396.085938 961.3125 398.824219 961.363281 400.785156 C 961.421875 404.171875 961.917969 404.511719 960.683594 404.667969 C 958.335938 404.960938 957.863281 406.207031 957.839844 408.554688 C 957.792969 412.019531 961.796875 409.003906 961.703125 412.683594 C 961.675781 413.410156 962.078125 413.277344 955.480469 414.003906 C 954.269531 414.136719 953.261719 413.191406 952.683594 414.765625 C 952.269531 415.855469 948.867188 415.359375 948.917969 411.691406 C 949.027344 403.917969 949.121094 405.722656 948.6875 404.5625 C 948.410156 404.71875 947.972656 404.789062 947.863281 405.019531 C 946.339844 408.375 941.519531 409.65625 943.785156 412.417969 C 946.484375 415.710938 946.097656 403.046875 946.675781 414.753906 C 947.210938 425.46875 944.667969 416.363281 942.015625 423.578125 C 941.554688 424.800781 942.621094 425.128906 943.347656 425.636719 C 943.855469 426 944 427.683594 945.550781 426.351562 C 946.640625 425.417969 947.089844 426.507812 946.300781 427.71875 C 946.097656 428.023438 945.105469 427.890625 942.066406 428.265625 C 938.46875 428.6875 942.292969 432.960938 940.285156 434.113281 C 936.847656 436.109375 932.707031 435.019531 934.679688 433.917969 C 937.777344 432.210938 931.761719 436.167969 939.085938 431.726562 C 939.269531 431.617188 939.765625 430.285156 938.46875 430.78125 C 938.058594 430.953125 936.90625 431.921875 934.789062 432.078125 C 933.179688 432.210938 933.082031 429.488281 935.164062 429.644531 C 935.964844 429.707031 937.039062 429.488281 936.8125 428.664062 C 936.328125 426.847656 942.089844 424.707031 938.917969 421.761719 C 934.957031 418.082031 933.492188 420.261719 933.566406 416.207031 C 933.773438 405.515625 930.296875 418.347656 928.796875 419.863281 C 928.226562 420.445312 928.675781 421.195312 929.582031 421.230469 C 931.046875 421.277344 931.507812 423.457031 929.5 423.457031 C 928.214844 423.457031 927.632812 424.378906 926.96875 425.273438 C 926.328125 426.144531 928.601562 430.164062 930.601562 430.25 C 931.167969 430.261719 931.894531 432.175781 929.921875 432.488281 C 926.023438 433.117188 924.910156 434.160156 922.851562 433.445312 C 922.355469 433.277344 920.320312 435.285156 922.511719 435.746094 C 923.855469 436.035156 928.589844 433.929688 930.574219 435.203125 C 927.632812 438.144531 920.746094 435.636719 920.078125 437.5625 C 920.03125 437.71875 919.921875 437.925781 919.789062 437.960938 C 917.441406 438.820312 913.664062 443.894531 913.335938 441.035156 C 913.046875 438.519531 916.316406 438.871094 914.667969 438.191406 C 914.21875 438.011719 913.675781 437.890625 914.609375 437.632812 C 919.523438 436.277344 920.648438 430.445312 917.851562 428.6875 C 915.480469 427.199219 914.316406 428.398438 914.257812 426.0625 C 914.097656 419.390625 916.421875 408.554688 912.9375 413.675781 C 910.441406 417.320312 912.984375 418.992188 910.925781 423.796875 C 910.128906 425.671875 907.210938 430.203125 910.515625 430.832031 C 911.894531 431.097656 911.363281 431.761719 911.421875 433.167969 C 911.484375 434.558594 910.359375 434.050781 907.101562 433.433594 C 901.21875 432.320312 902.527344 437.5625 897.71875 437.828125 C 891.386719 438.191406 894.5 437.792969 893.652344 431.667969 C 892.949219 426.546875 892.175781 425.820312 893.796875 424.949219 C 894.535156 424.546875 896.109375 423.457031 895.734375 422.660156 C 895.671875 422.527344 859.789062 417.828125 859.28125 417.769531 C 857.78125 417.609375 853.941406 415.613281 850.976562 415.648438 C 848.167969 415.675781 848.507812 413.96875 846.011719 414.332031 C 842.851562 414.789062 841.738281 412.078125 838.375 411.171875 C 836.957031 410.796875 817.746094 404.089844 815.238281 403.363281 C 809.535156 401.703125 812.464844 403.410156 802.828125 400.953125 C 800.6875 400.410156 799.257812 400.324219 798.300781 401.714844 C 797.804688 402.417969 798.738281 402.613281 799.125 403.335938 C 798.191406 403.714844 794.695312 402.261719 794.160156 402.03125 C 790.007812 400.238281 789.367188 401.632812 776.945312 408.507812 C 768.070312 413.421875 746.800781 424.0625 736.691406 425.070312 C 721.269531 426.59375 698.859375 409.851562 689.015625 416.074219 C 687.808594 416.847656 676.0625 422.914062 675.410156 427.429688 C 678.628906 427.464844 686.476562 414.160156 699.792969 419.730469 C 708.945312 423.566406 706.21875 421.535156 712.84375 423.46875 C 728.679688 428.121094 732.117188 429.65625 742.890625 425.964844 C 759.816406 420.175781 783.375 405.601562 788.109375 404.292969 C 790.808594 403.542969 791.160156 404.320312 798.011719 406.207031 C 812.769531 410.261719 808.714844 411.945312 814.632812 412.988281 C 832.683594 416.144531 868.375 418.289062 890.539062 424.886719 C 892.332031 425.417969 890.09375 425.953125 890.296875 429.960938 C 890.492188 433.738281 891.90625 434.535156 889.246094 434.34375 C 885.019531 434.027344 882.597656 441.570312 885.308594 441.582031 C 887.175781 441.59375 888.964844 442.597656 890.902344 442.003906 C 891.894531 441.703125 891.957031 443.710938 891.558594 443.917969 C 890.105469 444.667969 889.28125 443.238281 888.710938 443.117188 C 887.078125 442.804688 883.347656 441.921875 882.839844 443.214844 C 882.125 444.984375 883.433594 445.199219 883.90625 446.21875 C 885.671875 449.972656 889.984375 449.304688 891.605469 449.460938 C 892.355469 449.535156 892.539062 450.480469 891.75 450.734375 C 887.246094 452.1875 886.289062 450.117188 880.648438 450.589844 C 878.347656 450.78125 882.792969 447.089844 877.71875 445.855469 C 875.457031 445.308594 876.546875 444.21875 876.980469 437.707031 C 877.585938 428.964844 874.316406 435.722656 874.425781 438.203125 C 874.609375 442.550781 870.976562 439.730469 868.578125 442.875 C 867.609375 444.148438 867.890625 444.667969 866.75 446.15625 C 865.953125 442.769531 869.996094 420.285156 861.835938 448.808594 C 860.914062 452.003906 863.058594 451.242188 863.871094 452.632812 C 865.082031 454.703125 859.292969 456.265625 856.871094 452.972656 C 855.84375 451.582031 857.234375 442.695312 856.882812 440.988281 C 856.074219 441.351562 855.359375 441.097656 854.707031 443.628906 C 852.1875 453.371094 851.535156 454.402344 853.90625 455.550781 C 854.257812 455.734375 854.535156 457.027344 854.425781 457.417969 C 854.183594 458.289062 850.976562 457.984375 849.207031 457.863281 C 846.703125 457.695312 844.558594 461.289062 846.253906 462.222656 C 848.675781 463.566406 851.460938 464.316406 853.882812 465.261719 C 855.296875 465.804688 854.996094 468.878906 853.941406 468.398438 C 853 467.960938 851.835938 468.238281 850.976562 467.355469 C 850.578125 466.957031 849.839844 466.835938 849.222656 466.691406 C 846.761719 466.097656 846.460938 466.277344 845.660156 468.6875 C 845.203125 470.042969 845.347656 470.285156 846.714844 470.5625 C 850.601562 471.339844 846.171875 472.136719 844.839844 473.152344 C 844.207031 473.636719 841.304688 474.472656 840.988281 473.191406 C 840.347656 470.671875 844.0625 472.160156 844.390625 468.191406 C 844.632812 465.285156 839.949219 468.300781 841.703125 461.121094 C 842.636719 457.308594 842.101562 458.15625 842.695312 449.125 C 842.925781 445.539062 843.980469 443.894531 842.175781 443.722656 C 841.21875 443.640625 841.21875 443.25 840.578125 452.925781 C 840.019531 461.3125 840.78125 461.230469 838.664062 461.328125 C 826.460938 461.90625 830.636719 468.652344 837.769531 468.503906 C 839.234375 468.46875 839.828125 469.292969 839.789062 469.546875 C 839.574219 471.109375 834.816406 471.582031 833.929688 471.449219 C 832.730469 471.277344 831.496094 471.144531 830.675781 472.632812 C 829.898438 474.050781 829.816406 474.535156 831.402344 474.945312 C 839.523438 477.101562 839.609375 474.714844 839.632812 478.734375 C 839.632812 479.363281 839.195312 479.886719 839.003906 479.96875 C 823.664062 486.675781 824.003906 483.019531 823.992188 487.257812 C 827.609375 486.871094 835.175781 483.09375 838.796875 481.375 C 839.933594 480.828125 840.492188 484.027344 837.988281 484.511719 C 836.050781 484.871094 824.074219 492.171875 818.699219 491.472656 C 810.300781 490.382812 810.941406 487.839844 810.867188 501.507812 C 810.855469 502.691406 810.359375 503.382812 809.453125 503.296875 C 806.269531 503.03125 798.121094 504.882812 795.203125 504.121094 C 795.007812 504.074219 794.730469 504.328125 794.5 504.449219 C 796.230469 505.695312 806.65625 504.449219 808.6875 505.152344 C 814.269531 507.0625 812.261719 499.945312 812.152344 495.164062 C 812.113281 493.273438 813.15625 494.171875 817.113281 494.414062 C 823.871094 494.8125 840.359375 483.769531 842.769531 484.535156 C 842.925781 484.582031 843.347656 484.253906 843.386719 484.050781 C 843.664062 482.742188 846.183594 483.058594 846.738281 481.386719 C 844.984375 481.121094 841 484.363281 841.351562 481.824219 C 841.761719 478.867188 844.597656 479.558594 847.671875 475.84375 C 850.273438 472.707031 852.246094 476.121094 853.90625 471.90625 C 855.191406 468.613281 853.132812 474.714844 854.136719 477.222656 C 855.84375 475.816406 857.828125 471 858.144531 469.085938 C 858.398438 467.5 859.644531 467.730469 863.421875 467.089844 C 865.054688 466.824219 863.023438 474.667969 865.347656 472.390625 C 866.847656 470.925781 867.417969 470.527344 868.011719 468.3125 C 868.238281 467.476562 867.234375 467.621094 866.363281 467.609375 C 866.910156 465.683594 871.171875 462.523438 872.175781 461.96875 C 872.660156 461.703125 873.84375 462.175781 873.289062 462.65625 C 872.914062 462.972656 871.507812 463.25 871.507812 463.25 C 870.566406 465.394531 870.152344 466.496094 872.246094 466.8125 C 873.785156 467.039062 873.589844 468.007812 874.113281 471.167969 C 874.316406 472.367188 875.492188 471.53125 875.855469 470.683594 C 876.789062 468.503906 876.53125 467.199219 878.277344 466.847656 C 883.421875 465.828125 885.914062 464.679688 880.699219 464.074219 C 877.210938 463.664062 877.828125 463.613281 877.199219 463.589844 C 875.054688 463.503906 875.308594 461.035156 876.21875 460.285156 C 882.175781 455.347656 881.144531 455.601562 878.882812 455.902344 C 879.085938 455.722656 880.445312 454.511719 881.046875 454.378906 C 896.933594 450.976562 883.640625 455.214844 880.832031 458.238281 C 882.527344 458.964844 880.855469 458.964844 887.816406 456.035156 C 891.363281 454.546875 894.425781 458.3125 891.847656 458.953125 C 884.015625 460.878906 886.460938 459.59375 882.585938 459.621094 C 883.640625 461.605469 883.070312 461.15625 885.832031 462.210938 C 881.605469 462.644531 883.132812 463.167969 883.324219 463.179688 C 887.054688 463.371094 887.769531 462.511719 888.832031 463.652344 C 889.015625 463.84375 890.320312 463.335938 890.988281 463.238281 C 893.675781 462.851562 892.71875 463.15625 893.167969 464.703125 C 893.976562 467.621094 895.527344 461.289062 896.957031 459.800781 C 897.753906 458.976562 896.75 456.617188 899.246094 457.488281 C 900.660156 457.984375 900.890625 457.464844 902.367188 456.628906 C 905.84375 454.667969 903.117188 452.015625 905.757812 451.921875 C 914.003906 451.605469 917.78125 446.726562 908.15625 456.011719 C 905.734375 458.347656 906.96875 459.777344 910.382812 456.582031 C 912.914062 454.21875 921.351562 446.824219 924.753906 447.390625 C 929.097656 448.117188 952.5625 434.136719 958.976562 433.203125 C 961.046875 432.902344 966.011719 431.023438 957.015625 432.066406 C 954.039062 432.40625 947.742188 435.890625 948.636719 434.546875 C 950.429688 431.871094 949.460938 432.34375 954.085938 430.429688 C 962.414062 426.980469 962.257812 426.519531 962.332031 429.039062 C 962.546875 436.121094 976.035156 419.453125 999.738281 410.832031 C 1001.046875 410.359375 1001.035156 410.273438 1000.851562 408.835938 C 1001.363281 408.847656 1001.96875 409.015625 1002.332031 408.796875 C 1003.878906 407.816406 1005.707031 407.804688 1007.378906 407.234375 C 1011.191406 405.953125 1018.625 401.957031 1021.082031 402.25 C 1023.769531 402.574219 1025.042969 397.839844 1022.65625 398.847656 " fill-opacity="1" fill-rule="nonzero"/></g><path fill="#1d3557" d="M 970.585938 405.394531 C 970.585938 405.40625 970.601562 405.421875 970.613281 405.433594 L 970.585938 405.394531 " fill-opacity="1" fill-rule="nonzero"/><path fill="#1d3557" d="M 622.492188 525.429688 C 623.65625 523.5625 627.117188 524.4375 626.476562 525.378906 C 625.605469 526.6875 625.214844 526.265625 624.394531 526.144531 C 623.472656 526.289062 621.753906 526.628906 622.492188 525.429688 Z M 619.855469 508.964844 C 624.03125 509.460938 621.183594 511.421875 620.132812 512.425781 C 619.816406 511.675781 619.503906 510.914062 619.152344 510.078125 C 619.417969 509.628906 619.683594 508.941406 619.855469 508.964844 Z M 614.320312 521.324219 C 614.1875 521.300781 613.667969 521.238281 613.582031 521.601562 C 601.667969 518.625 608.898438 519.398438 610.675781 517.765625 C 610.980469 517.488281 611.71875 517.4375 612.152344 517.582031 C 613.8125 518.164062 615.300781 517.777344 616.777344 517.039062 C 620.398438 515.257812 617.988281 522.125 614.320312 521.324219 Z M 605.929688 522.996094 C 600.265625 526.734375 595.460938 526.675781 605.339844 522.21875 C 605.726562 522.039062 606.488281 522.632812 605.929688 522.996094 Z M 598.605469 518.648438 C 597.953125 518.394531 598.363281 517.4375 598.886719 517.597656 C 601.199219 518.25 601.234375 518.660156 601.730469 518.941406 C 602.710938 519.484375 603.242188 519.167969 601.511719 519.652344 C 600.519531 519.328125 599.550781 519.023438 598.605469 518.648438 Z M 586.246094 515.332031 C 586.171875 513.710938 586.101562 512.304688 587.636719 512.921875 C 592.84375 514.980469 594.855469 516.433594 589.273438 517.257812 C 587.179688 517.113281 586.332031 517.195312 586.246094 515.332031 Z M 587.734375 509.171875 C 589.613281 509.605469 589.359375 509.617188 589.359375 509.898438 C 586.429688 509.425781 586.984375 508.988281 587.734375 509.171875 Z M 586.113281 473.179688 C 586.390625 473.289062 586.609375 473.515625 586.972656 473.785156 C 586.257812 474.207031 586.125 474.667969 585.6875 473.515625 C 585.664062 473.457031 586.027344 473.140625 586.113281 473.179688 Z M 572.296875 535.320312 C 562.488281 541.773438 558.996094 546.007812 550.992188 543.042969 C 552.597656 541.613281 556.203125 539.691406 557.835938 536.953125 C 559.039062 534.945312 558.0625 532.835938 555.300781 533.710938 C 546.804688 536.371094 545.890625 535.003906 550.835938 532.160156 C 553.167969 530.816406 553.828125 527.21875 552.464844 526.253906 C 551.585938 525.632812 549.90625 526.144531 550.65625 524.546875 C 553.675781 518.164062 548.308594 518.539062 549.382812 515.925781 C 550.980469 512.003906 551.167969 511.375 552.476562 511.363281 C 557.992188 511.300781 560.382812 509.933594 557.039062 513.964844 C 555.878906 515.355469 554.03125 519.617188 557.632812 519.410156 C 561.066406 519.21875 559.980469 519.121094 561.074219 519.640625 C 559.902344 521.3125 557.992188 522.097656 556.050781 522.085938 C 550.558594 522.050781 551.390625 526.519531 554.515625 525.648438 C 558.582031 524.519531 561.382812 525.984375 561.449219 526.46875 C 561.574219 527.328125 559.628906 528.382812 558.488281 529.640625 C 557.011719 531.289062 557.625 533.914062 559.585938 534.449219 C 564.65625 535.804688 566.324219 533.769531 574.320312 531.035156 C 577.261719 530.042969 578.714844 531.09375 572.296875 535.320312 Z M 553.597656 492.695312 C 555.023438 493.699219 554.933594 492.742188 552.152344 497.707031 C 551.433594 498.988281 550.808594 498.273438 550.132812 496.554688 C 549.375 494.644531 553.007812 492.679688 553.597656 492.695312 Z M 551.816406 481.640625 C 554.058594 481.507812 553.546875 482.804688 553.675781 484.800781 C 553.78125 486.496094 551.472656 486.957031 551.015625 485.140625 C 550.40625 482.707031 550.328125 481.738281 551.816406 481.640625 Z M 550.679688 466.917969 C 551.777344 467.984375 551.339844 466.554688 552.460938 472.199219 C 550.953125 470.394531 549.402344 469.0625 550.679688 466.917969 Z M 558.285156 499.679688 C 560.058594 499.898438 559.523438 500.40625 558.875 500.878906 C 555.117188 503.578125 554.660156 504.171875 554.175781 502.949219 C 553.046875 500.042969 550.492188 500.949219 558.285156 499.679688 Z M 583.558594 503.214844 C 582.636719 502.789062 580.351562 502.292969 581.65625 501.542969 C 583.328125 500.585938 584.746094 500.550781 584.792969 502.476562 C 584.828125 503.589844 584.613281 503.710938 583.558594 503.214844 Z M 577.976562 509.363281 C 576.851562 509.414062 577.625 508.394531 577.878906 508.359375 C 584.625 507.183594 588.136719 509 577.976562 509.363281 Z M 583.363281 491.640625 C 581.511719 491.75 579.84375 491.144531 578.378906 490.078125 C 578 489.800781 577.953125 489.085938 577.757812 488.589844 C 579.226562 484.148438 579.683594 486.21875 583.121094 487.949219 C 583.996094 488.382812 585.3125 491.53125 583.363281 491.640625 Z M 582.46875 478.082031 C 582.988281 477.5 583.402344 476.097656 583.847656 478.6875 C 583.679688 478.953125 583.472656 479.375 583.160156 479.714844 C 582.964844 479.933594 581.550781 479.148438 582.46875 478.082031 Z M 582.675781 466.179688 C 582.515625 466 582.214844 465.78125 582.25 465.636719 C 582.445312 464.703125 583.269531 465.238281 583.402344 465.285156 C 582.988281 465.792969 582.832031 465.988281 582.675781 466.179688 Z M 616.546875 505.453125 C 610.277344 507.488281 613.667969 503.515625 615.859375 503.238281 C 617.664062 503.625 617.6875 505.078125 616.546875 505.453125 Z M 611.222656 495.625 C 611.621094 495.503906 612.214844 495.152344 613.339844 495.488281 C 615.957031 496.253906 616.960938 491.894531 616.960938 496.652344 C 617.179688 498.832031 616.960938 499.023438 614.914062 498.117188 C 614.101562 497.742188 612.152344 496.652344 611.222656 495.625 Z M 626.742188 521.386719 C 623.050781 520.972656 625.96875 517.027344 623.253906 518.382812 C 620.082031 519.957031 619.9375 520.378906 619.816406 518.625 C 619.695312 516.941406 619.1875 515.828125 620.578125 514.824219 C 621.949219 513.84375 624.394531 509.859375 623.582031 508.09375 C 621.921875 504.507812 620.230469 506.144531 619.757812 505.574219 C 618.339844 503.832031 619.914062 503.6875 620.035156 503.710938 C 621.777344 504.011719 622.324219 502.257812 622.675781 500.515625 C 623 498.890625 621.949219 499.253906 619.574219 499.160156 C 617.769531 499.085938 618.425781 472.886719 615.386719 478.566406 C 613.632812 481.847656 615.59375 485.175781 615.917969 489.871094 C 616.113281 492.828125 613.582031 491.859375 609.976562 490.988281 C 607.796875 490.476562 607.648438 491.808594 606.949219 494.957031 C 606.402344 497.414062 610.941406 500.695312 611.609375 501 C 614.441406 502.304688 611.28125 502.707031 610.738281 508.347656 C 610.433594 511.347656 613.085938 509.898438 615.167969 509.023438 C 618.617188 507.597656 619.152344 513.054688 616.730469 513.539062 C 609.925781 514.882812 606.332031 509.800781 608.449219 515.464844 C 609.199219 517.476562 604.769531 515.851562 602.867188 516.761719 C 602.214844 517.074219 601.304688 515.089844 598.375 515.429688 C 597.371094 515.539062 596.292969 514.277344 596.125 515.648438 C 596.050781 516.3125 595.582031 518.589844 596.148438 519.097656 C 597.179688 520.015625 597.855469 521.507812 599.5625 521.496094 C 602.191406 521.46875 594.550781 526.554688 589.585938 525.5 C 588.378906 525.246094 587.359375 526.640625 587.238281 523.878906 C 586.960938 517.558594 593.039062 523.769531 595.144531 515.394531 C 596.234375 511.058594 590.472656 511.253906 591.34375 509.617188 C 594.382812 503.890625 587.601562 506.058594 586.367188 503.769531 C 585.300781 501.820312 586.1875 499.835938 588.328125 499.535156 C 594.054688 498.699219 594.757812 492.679688 593.339844 494.402344 C 591.816406 496.253906 589.25 495.792969 587.433594 497.027344 C 587.214844 497.171875 586.488281 496.929688 586.257812 496.652344 C 585.785156 496.109375 586.523438 494.507812 587.25 494.496094 C 589.585938 494.449219 591.027344 495.488281 591.355469 494.253906 C 591.707031 492.898438 589.441406 492.269531 588.074219 492.136719 C 586.148438 491.96875 585.785156 491.578125 585.957031 489.691406 C 586.222656 487.003906 587.894531 489.546875 588.835938 487.269531 C 590.882812 482.378906 585.617188 485.757812 585.847656 479.011719 C 585.96875 475.722656 588.390625 477.789062 589.480469 475.273438 C 592.371094 468.542969 585.796875 471.230469 585.640625 466.980469 C 584.417969 435.578125 579.152344 449.085938 580.472656 453.035156 C 582.710938 459.742188 583.835938 462.246094 581.003906 462.550781 C 578.535156 462.804688 576.644531 465.746094 578.535156 466.992188 C 579.019531 467.292969 579.816406 467.476562 579.949219 467.886719 C 580.785156 470.394531 586.1875 471.339844 580.894531 475.503906 C 577.261719 478.359375 580.167969 482.476562 580.191406 482.597656 C 580.351562 483.433594 579.359375 482.960938 579.128906 483.433594 C 579.066406 483.554688 575.328125 488.457031 575.933594 492.65625 C 576.160156 494.21875 576.1875 494.304688 583.328125 493.890625 C 584.636719 493.820312 584.550781 494.667969 584.695312 496.15625 C 584.949219 498.554688 576.078125 498.78125 575 500.394531 C 574.683594 500.867188 574.464844 501.410156 574.261719 501.953125 C 573.789062 503.164062 574.007812 503.445312 575.300781 503.480469 C 577.347656 503.539062 581.730469 505.152344 579.636719 506.179688 C 578.015625 506.96875 575.046875 506.96875 574.816406 511 C 574.734375 512.707031 574.925781 512.402344 580.808594 512.742188 L 580.808594 512.691406 C 585.191406 512.691406 585.058594 512.269531 584.9375 514.859375 C 584.925781 514.980469 585.144531 515.464844 584.152344 516.410156 C 581.863281 518.601562 581.949219 517.269531 584.117188 519.230469 C 584.988281 520.015625 585.191406 519.847656 584.890625 524.144531 C 584.746094 526.335938 578.679688 525.210938 577.625 522.898438 C 577.542969 522.742188 577.117188 522.667969 576.875 522.691406 C 575.882812 522.800781 577.917969 524.546875 575.265625 524.484375 C 570.941406 524.398438 571.230469 524.035156 570.425781 526.214844 C 569.425781 528.941406 570.425781 528.117188 572.554688 528.820312 C 569.949219 531.578125 557.339844 533.03125 560.871094 529.617188 C 564.28125 526.3125 566.542969 526.613281 566.921875 523.941406 C 567.269531 521.480469 560.226562 523.613281 562.34375 521.554688 C 568.742188 515.34375 564.359375 516.457031 558.664062 516.226562 C 556.578125 516.144531 558.609375 514.351562 560.339844 512.4375 C 562.761719 509.75 564.261719 510.078125 566.101562 509.726562 C 568.414062 509.292969 570.027344 505.71875 568.179688 505.769531 C 567.59375 505.78125 553.753906 509.519531 555.113281 506.605469 C 556.125 504.414062 565.746094 501.554688 564.632812 497.136719 C 564.046875 494.800781 556.148438 496.75 558.660156 494.582031 C 559.15625 494.160156 562.367188 493.648438 562.945312 493.820312 C 563.820312 494.085938 564.453125 492.089844 564.691406 491.203125 C 565.078125 489.800781 563.195312 490.25 562.144531 490.164062 C 550.957031 489.253906 559.152344 478.878906 552.109375 460.140625 C 551.285156 457.960938 549.847656 461.265625 548.921875 463.398438 C 544.296875 474.039062 552.496094 475.273438 550.125 478.058594 C 548.183594 480.332031 548.222656 488.007812 549.398438 489.859375 C 550.117188 490.988281 549.871094 491.871094 549.191406 492.851562 C 547.589844 495.175781 548.15625 495.746094 547.785156 498.40625 C 547.332031 501.664062 550.734375 502.246094 549.035156 505.890625 C 548.898438 506.179688 548.789062 506.628906 548.90625 506.894531 C 551.824219 513.648438 543.398438 517.183594 547.664062 521.15625 C 549.585938 522.945312 544.425781 522.960938 545.132812 527.742188 C 545.484375 530.125 546.207031 529 550.136719 528.699219 C 551.191406 528.613281 551.097656 529.679688 550.640625 530.113281 C 548.816406 531.808594 546.273438 530.875 545.253906 537.28125 C 548.59375 537.074219 555.46875 535.402344 556.246094 536.347656 C 556.648438 536.84375 552.742188 539.761719 551.660156 540.1875 C 543.457031 543.320312 540.859375 542.039062 537.984375 542.085938 C 535.296875 542.148438 531.652344 546.578125 542.808594 546.070312 C 550.914062 545.695312 547.9375 546.542969 549.683594 546.554688 C 553.316406 546.566406 555.992188 546.09375 555.121094 547.800781 C 554.523438 548.988281 549.597656 550.257812 548.90625 550.414062 C 543.03125 551.757812 538.882812 550.9375 538.296875 555.089844 C 537.710938 559.242188 550.058594 552.679688 568.25 547.59375 C 569.996094 547.097656 569.710938 545.234375 571.878906 544.714844 C 574.238281 544.15625 575.53125 544.472656 575.582031 543.226562 C 575.652344 541.324219 572.453125 541.007812 571.148438 541.457031 C 564.414062 543.78125 560.308594 544.570312 566.550781 540.730469 C 572.496094 537.0625 578.148438 536.179688 579.464844 529.640625 C 579.722656 528.394531 580.570312 528.394531 584.222656 529.097656 C 585.191406 529.289062 584.878906 531.953125 584.746094 533.382812 C 584.734375 533.550781 584.296875 533.757812 584.03125 533.804688 C 583.835938 533.84375 583.605469 533.648438 583.378906 533.601562 C 582.179688 533.332031 581.574219 535.671875 582.929688 535.972656 C 586.5625 536.796875 584.976562 538.660156 586.003906 541.746094 C 586.535156 543.332031 587.976562 540.511719 587.773438 538.625 C 587.578125 536.820312 587.855469 537.21875 595.945312 537.085938 C 597.976562 537.050781 598.558594 535.175781 595.992188 535.039062 C 588.632812 534.628906 587.578125 535.066406 587.492188 533.527344 C 587.261719 529.289062 587.480469 529.15625 588.339844 529.058594 C 592.382812 528.5625 595.472656 527.621094 597.105469 527.523438 C 606.003906 527.027344 605.652344 522.546875 607.273438 523.792969 C 608.859375 525.003906 609.320312 525.378906 609.683594 525.367188 C 611.441406 525.355469 613.207031 525.886719 614.976562 525.378906 C 616.003906 525.078125 616.441406 526.226562 610.300781 527.039062 C 607.25 527.4375 607.25 527.378906 606.546875 530.367188 C 606.148438 532.050781 606.320312 532.328125 607.878906 532.886719 C 609.792969 533.5625 611.003906 531.796875 611.886719 531.457031 C 617.300781 529.410156 617.324219 529.59375 620.496094 533.25 C 622.082031 530.585938 621.71875 529.945312 623.789062 529.628906 C 630.253906 528.625 636.695312 522.5 626.742188 521.386719 " fill-opacity="1" fill-rule="nonzero"/><path fill="#1d3557" d="M 746.863281 492.800781 C 745.421875 485.816406 745.238281 487.234375 753.328125 487.078125 C 754.875 487.050781 754.078125 487.742188 756.027344 489.945312 C 757.453125 491.566406 752.757812 492.609375 751.171875 492.378906 C 748.074219 491.90625 747.175781 494.363281 746.863281 492.800781 Z M 755.773438 494.339844 C 755.640625 494.363281 749.671875 494.789062 752.347656 493.867188 C 757.273438 492.183594 761.644531 492.960938 755.773438 494.339844 Z M 758.351562 487.402344 C 758.398438 486.566406 760.226562 489.121094 761.050781 486.726562 C 761.875 484.339844 765.625 489.230469 762.285156 489.21875 C 758.011719 487.683594 758.3125 487.886719 758.351562 487.402344 Z M 761.039062 474.414062 C 759.621094 473.976562 757.394531 473.542969 758.144531 472.585938 C 759.441406 470.925781 763.253906 469.097656 763.242188 470.574219 C 763.179688 476.035156 761.316406 473.636719 761.039062 474.414062 Z M 762.769531 491.617188 C 763.070312 491.472656 762.890625 491.386719 763.484375 491.917969 C 763.058594 492.125 763.242188 492.210938 762.769531 491.617188 Z M 745.554688 470.78125 C 746.148438 470.734375 747.515625 472.066406 747.273438 472.488281 C 745.480469 475.648438 744.136719 471.773438 745.554688 470.78125 Z M 746.0625 460.539062 C 746.667969 461.496094 747.515625 462.863281 746.425781 463.128906 C 744.417969 463.652344 745.214844 459.183594 746.0625 460.539062 Z M 742.40625 485.140625 C 739.816406 484.414062 739.320312 484.339844 738.289062 482.753906 C 737.453125 481.472656 740.640625 481.300781 743.179688 480.949219 C 744.210938 480.804688 744.765625 485.792969 742.40625 485.140625 Z M 765.878906 465.25 C 770.578125 466.773438 765.203125 467.160156 765.15625 467.003906 C 764.632812 465.441406 765.324219 465.550781 765.878906 465.25 Z M 765.808594 457.671875 C 766.207031 458.6875 766.269531 458.371094 765.664062 459.085938 C 765.347656 458.046875 765.371094 458.398438 765.808594 457.671875 Z M 764.914062 481.519531 C 765.128906 481.097656 764.828125 480.925781 772.816406 482.65625 C 773.410156 482.789062 773.566406 483.382812 773.824219 483.878906 C 770.867188 485.113281 763.207031 484.847656 764.914062 481.519531 Z M 765.675781 476.191406 C 783.300781 477.441406 765.976562 480.695312 769.015625 478.359375 C 768.277344 477.546875 769.429688 478.238281 765.457031 476.871094 C 765.324219 476.824219 764.777344 476.132812 765.675781 476.191406 Z M 785.664062 488.890625 C 787.117188 488.953125 786.570312 487.789062 787.527344 488.191406 C 789.972656 489.195312 792.816406 486.820312 792.828125 489.160156 C 792.839844 491.011719 792.671875 490.625 785.734375 489.414062 C 784.730469 489.230469 785.457031 488.878906 785.664062 488.890625 Z M 791.847656 493.855469 C 790.058594 493.6875 790.710938 493.421875 791.738281 492.960938 C 790.84375 492.199219 778.046875 488.746094 791.945312 491.519531 C 793.191406 491.773438 793.847656 493.929688 791.847656 493.855469 Z M 785.300781 473.371094 C 785.820312 473.105469 785.167969 473.15625 787.78125 473.15625 C 791.777344 473.664062 793.339844 471.121094 793.554688 473.457031 C 793.96875 477.839844 785.578125 473.917969 785.300781 473.371094 Z M 791.859375 478.722656 C 790.820312 478.433594 789.695312 478.238281 790.636719 477.730469 C 792.757812 476.554688 793.566406 477.65625 791.859375 478.722656 Z M 797.855469 484.8125 C 798.011719 484.8125 798.582031 485.296875 797.867188 485.429688 C 794.898438 485.976562 793.929688 486.363281 793.96875 485.222656 C 794.101562 481.023438 795.179688 484.789062 797.855469 484.8125 Z M 797.234375 476.566406 C 799.996094 476.773438 801.726562 475.261719 802.296875 475.152344 C 804.851562 474.65625 801.765625 479.304688 796.375 478.84375 C 793.410156 478.84375 793.542969 476.289062 797.234375 476.566406 Z M 791.898438 496.398438 C 792.464844 496.15625 792.261719 496.15625 792.671875 496.640625 C 792.078125 496.808594 792.261719 496.917969 791.898438 496.398438 Z M 795.808594 492.125 C 796.875 492.320312 797.769531 492.488281 796.738281 493.09375 C 794.355469 494.460938 793.726562 492.292969 795.808594 492.125 Z M 755.664062 498.46875 C 754.621094 498.019531 747.054688 501.3125 747.152344 499.011719 C 747.332031 494.824219 748.871094 497.984375 749.296875 496.617188 C 749.539062 495.867188 747.792969 494.800781 747.671875 494.703125 C 748.375 494.460938 749.367188 495.019531 749.597656 495.273438 C 750.261719 496.011719 750.289062 495.746094 753.894531 495.539062 C 751.742188 496.96875 747.441406 498.324219 749.078125 498.128906 C 755.675781 497.367188 760.785156 493.503906 762.492188 493.613281 C 765.542969 493.820312 761.195312 499.992188 763.085938 500.671875 C 764.914062 501.335938 766.027344 493.433594 767.34375 492.9375 C 782.371094 487.257812 778.808594 488.140625 783.628906 490.175781 C 784.476562 490.539062 783.96875 490.429688 783.3125 494.023438 C 783.058594 495.355469 784.113281 495.078125 786.535156 495.078125 C 786.484375 495.902344 785.140625 495.210938 784.804688 495.902344 C 781.886719 501.90625 788.109375 497.851562 790.757812 500.296875 C 793.605469 502.921875 794.171875 497.984375 794.5 497.222656 C 795.152344 495.707031 797.925781 495.988281 798.90625 496.214844 C 806.304688 497.921875 810.941406 490.71875 805.820312 490.585938 C 799.078125 490.40625 797.527344 490.128906 796.28125 491.035156 C 794.355469 492.4375 792.867188 487.574219 795.589844 487.804688 C 798.703125 488.070312 801.558594 486.726562 804.585938 486.421875 C 805.273438 486.363281 807.199219 484.351562 804.609375 483.503906 C 800.613281 482.199219 799.960938 482.667969 797.382812 481.761719 C 798.726562 480.671875 804.828125 479.292969 804.5 474.390625 C 803.957031 466.328125 795.046875 478.382812 794.644531 473.929688 C 794.332031 470.371094 798.121094 472.003906 798.242188 468.261719 C 798.324219 465.710938 794.683594 466.933594 795.371094 464.085938 C 796.449219 459.730469 796.644531 459.5 795.410156 457.609375 C 792.164062 460.816406 796.230469 467.851562 790.410156 464.789062 C 787.988281 463.503906 787.371094 463.105469 787.042969 463.398438 C 780.082031 469.667969 802.285156 470.976562 786.835938 471.023438 C 784.027344 471.035156 784.234375 468.457031 782.988281 470.066406 C 781.535156 471.917969 782.175781 473.289062 783.894531 474.558594 C 785.625 475.84375 785.128906 476.6875 787.914062 481.253906 C 789.234375 483.433594 793.144531 481.507812 792.867188 484.859375 C 792.757812 486.167969 792.625 486.410156 791.339844 486.460938 C 782.636719 486.785156 783.484375 486.566406 783.808594 485.355469 C 784.535156 482.730469 781.910156 484.4375 777.492188 486.386719 C 763.433594 492.597656 764.367188 487.003906 766.753906 487.476562 C 771.726562 488.445312 781.390625 482.199219 775.90625 481.070312 C 774.632812 480.804688 773.929688 481.023438 774.730469 479.765625 C 777.503906 475.40625 771.039062 474.257812 767.914062 474.242188 C 764.171875 474.230469 764.050781 474.0625 764.488281 470.371094 C 764.839844 467.441406 773.433594 467.1875 773.058594 464.59375 C 772.804688 462.753906 764.550781 463.3125 766.414062 461.132812 C 767.949219 459.339844 767.464844 458.289062 766.4375 450.078125 C 766.339844 449.304688 765.664062 448.917969 765.410156 448.929688 C 764.476562 448.964844 764.332031 451.847656 764.488281 452.441406 C 765.046875 454.632812 764.378906 456.664062 764.113281 458.773438 C 764.015625 459.632812 763.664062 459.789062 762.828125 459.449219 C 760.90625 458.675781 757.925781 462.054688 761.632812 463.105469 C 765.480469 464.207031 764.1875 468.277344 761.097656 468.578125 C 758.289062 468.867188 753.933594 475.480469 756.621094 476.242188 C 757.746094 476.566406 760.140625 476.96875 759.996094 477.609375 C 759.402344 480.25 762.707031 478.542969 762.78125 481.023438 C 762.828125 482.390625 763.617188 483.636719 762.066406 483.613281 C 759.816406 483.578125 757.78125 483.625 756.160156 484.980469 C 755.359375 485.660156 749.597656 485.792969 748.570312 485.613281 C 746.085938 485.164062 745.796875 485.492188 745.457031 482.222656 C 745.238281 480.175781 745.976562 480.746094 747.550781 480.480469 C 749.535156 480.140625 750.578125 476.871094 747.492188 476.554688 C 746.085938 476.398438 746.582031 476.507812 745.722656 476.085938 C 746.050781 475.671875 752.320312 471.449219 748.433594 468.480469 C 742.320312 463.832031 750.722656 467.210938 752.03125 465.066406 C 754.1875 461.507812 748.628906 461.96875 747.273438 456.800781 C 747.105469 456.144531 745.214844 454.160156 746.039062 450.722656 C 747.550781 444.523438 743.761719 446.933594 743.617188 454.304688 C 743.507812 460.816406 743.90625 462.539062 743.351562 463.761719 C 742.238281 466.21875 740.675781 467.125 742.152344 468.214844 C 743.460938 469.183594 743.386719 470.550781 743.398438 473.359375 C 743.410156 475.636719 741.621094 475.371094 739.296875 474.921875 C 735.734375 474.21875 735.128906 477.585938 736.558594 477.71875 C 738.421875 477.875 738.046875 477.34375 742.453125 478.566406 C 742.625 478.613281 743.363281 479.414062 742.25 479.582031 C 740.820312 479.789062 736.921875 479.484375 736.714844 483.214844 C 736.546875 486.351562 739.621094 486.554688 742.757812 486.542969 C 744.160156 486.53125 744.574219 486.375 744.65625 490.453125 C 744.695312 492.113281 744.683594 492.113281 743.035156 492.695312 C 742.296875 492.949219 744.101562 493.855469 742.441406 493.675781 C 741.800781 493.601562 740.761719 494.097656 740.867188 492.730469 C 740.882812 492.609375 733.664062 488.976562 735.335938 495.332031 C 735.578125 496.214844 736.714844 496.132812 737.296875 495.878906 C 739.550781 494.898438 741.742188 495.902344 743.945312 495.839844 C 746.097656 495.792969 745.796875 501.832031 741.269531 498.6875 C 736.316406 495.25 731.523438 499.789062 735.746094 500.394531 C 738.046875 500.707031 740.410156 500.03125 742.660156 500.851562 C 744.511719 500.066406 745.335938 500.816406 745.457031 502.695312 C 745.480469 503.054688 745.988281 503.382812 746.582031 502.707031 C 746.910156 502.332031 746.679688 500.40625 748.628906 500.683594 C 750.882812 501 755.140625 499.085938 755.664062 498.46875 " fill-opacity="1" fill-rule="nonzero"/><path fill="#1d3557" d="M 900.25 368.230469 C 899.886719 368.515625 899.65625 368.839844 899.378906 368.871094 C 898.796875 368.945312 898.167969 366.621094 900.25 368.230469 Z M 901.351562 369.703125 C 900.347656 373.355469 901.894531 376.773438 900.867188 378.585938 C 900.46875 377.878906 899.292969 366.757812 901.351562 369.703125 Z M 902.648438 371.179688 C 902.972656 369.070312 904.449219 371.453125 904.355469 371.660156 C 902.488281 375.671875 904.160156 384.175781 903.554688 385.574219 C 902.054688 384.660156 902.621094 371.320312 902.648438 371.179688 Z M 878.035156 382.105469 C 878.398438 382.808594 878.375 382.5 878.046875 383.480469 C 877.636719 382.609375 877.636719 382.96875 878.035156 382.105469 Z M 924.390625 342.660156 C 932.523438 344.441406 946.53125 339.398438 935.867188 340.175781 C 927.5625 340.777344 927.066406 339.074219 924.742188 340.9375 C 924.460938 341.164062 920.757812 341.300781 920.636719 341.300781 C 919.109375 341.347656 920.320312 340.019531 917.320312 340.03125 C 900.890625 340.085938 901.242188 339.710938 900.636719 341.085938 C 900.394531 341.640625 900.25 341.683594 899.972656 341.054688 C 898.359375 337.429688 885.214844 342.234375 884.511719 339.035156 C 884.378906 338.40625 881.242188 337.515625 880.6875 337.84375 C 880.550781 337.929688 880.671875 337.609375 879.28125 340.957031 C 878.871094 341.949219 879.8125 341.96875 879.8125 343.140625 C 879.789062 345.53125 881.253906 345.117188 887.066406 344.75 C 888.566406 344.65625 888.144531 344.460938 887.511719 354.953125 C 887.511719 363.007812 888.375 361.59375 881.8125 360.589844 C 876.726562 359.816406 877.285156 362.960938 875.054688 361.722656 C 873.265625 360.742188 872.222656 363.390625 873.3125 364.304688 C 874.246094 365.089844 874.71875 385.824219 872.695312 387.757812 C 871.570312 388.835938 871.714844 391.328125 874.609375 390.664062 C 879.703125 389.476562 879.488281 389.5625 879.679688 391.726562 C 879.753906 392.515625 880.527344 392.757812 880.6875 392.695312 C 899.875 385.617188 881.726562 389.160156 881.023438 386.695312 C 879.972656 382.984375 879.316406 381.300781 881.449219 381.171875 C 886.570312 380.863281 889.546875 379.675781 893.214844 381.796875 C 894.125 382.320312 895.078125 380.730469 895.238281 380.097656 C 895.964844 377.371094 892.9375 379.808594 890.347656 378.507812 C 887.769531 377.21875 885.84375 377.761719 879.316406 376.949219 C 877.015625 376.660156 877.671875 376.824219 876.109375 378.855469 C 875.492188 378.207031 875.335938 378.425781 875.335938 376.949219 C 875.40625 362.226562 876.582031 366.148438 884.488281 365.933594 C 886.519531 365.878906 888.410156 366.761719 890.589844 366.25 C 897.925781 364.511719 896.894531 363.28125 897.417969 373.160156 C 897.925781 382.785156 897.464844 400.710938 900.226562 392.503906 C 901.15625 389.730469 901.265625 390.105469 903.507812 389.753906 C 904.316406 389.621094 904.097656 390.46875 904.4375 390.734375 C 904.667969 390.90625 905.261719 390.941406 905.441406 390.785156 C 909.234375 387.210938 908.289062 397.042969 907.660156 375.941406 C 907.585938 373.296875 908.75 365.574219 907.042969 367.050781 C 904.742188 369.027344 898.601562 358.800781 897.164062 362.878906 C 896.398438 365.050781 888.640625 365.203125 887.621094 364.660156 C 887.210938 364.429688 886.945312 363.757812 887.816406 363.519531 C 891.4375 362.53125 890.214844 363.210938 891.230469 362.070312 C 890.09375 361.289062 890.550781 361.578125 890.09375 361.492188 C 887.875 361.082031 890.007812 359.609375 889.597656 357.34375 C 889.257812 355.46875 889.136719 344.410156 890.804688 344.578125 C 904.21875 345.941406 922.078125 342.152344 924.390625 342.660156 " fill-opacity="1" fill-rule="nonzero"/><path fill="#1d3557" d="M 709.246094 482.355469 C 709.476562 482.050781 709.648438 481.835938 709.804688 481.628906 C 709.914062 481.785156 710.132812 481.957031 710.105469 482.089844 C 709.9375 483.105469 709.5 482.5625 709.246094 482.355469 Z M 714.574219 489.738281 C 714.609375 489.824219 714.453125 490.019531 714.390625 490.164062 C 714.222656 490.042969 714.054688 489.921875 713.847656 489.777344 C 713.992188 489.535156 714.199219 488.953125 714.574219 489.738281 Z M 715.699219 491.835938 C 715.964844 492.632812 715.820312 491.808594 718.980469 494.144531 C 715.300781 498.191406 714.585938 488.515625 715.699219 491.835938 Z M 706.5 497.003906 C 702.417969 496.484375 702.066406 494.835938 700.3125 497.304688 C 697.660156 501.082031 709.464844 497.71875 709.054688 500.574219 C 709.042969 500.695312 708.558594 501.90625 709.066406 502.304688 C 709.792969 502.863281 710.613281 501.871094 710.871094 501.808594 C 711.957031 501.605469 712.46875 502.367188 712.175781 502.898438 C 711.910156 503.382812 705.398438 504.957031 712.078125 504.109375 C 714.550781 503.78125 712.804688 511.640625 715.722656 504.789062 C 716.097656 503.902344 715.773438 504.605469 720.820312 503.527344 C 723.703125 502.921875 729.609375 500.210938 728.75 498.3125 C 728.253906 497.234375 725.832031 499.097656 724.9375 497.667969 C 724.875 497.558594 722.078125 496.980469 720.699219 497.453125 C 720.507812 497.511719 720.226562 497.304688 719.972656 497.234375 C 721.535156 495.683594 724.390625 496.519531 724.597656 493.988281 C 724.78125 491.726562 713.992188 489.558594 716.789062 487.34375 C 720.058594 484.753906 714.136719 485.707031 714.996094 482.695312 C 715.035156 482.574219 714.730469 482.101562 714.390625 482.621094 C 714.148438 482.984375 713.265625 486.894531 712.492188 477.113281 C 711.085938 459.351562 711.945312 459.863281 715.785156 470.648438 C 716.984375 474.027344 715.664062 463.09375 715.082031 462.585938 C 710.699219 458.761719 711.742188 445.285156 710.457031 447.199219 C 708.316406 450.394531 708.738281 449.21875 710.226562 462.632812 C 710.75 467.269531 708.519531 466.070312 708.882812 469.351562 C 709.730469 477.039062 710.53125 479.632812 708.144531 479.835938 C 705.058594 480.117188 703.167969 484.292969 705.347656 484 C 706.910156 483.796875 706.546875 484.933594 708.144531 485.199219 C 712.855469 485.9375 711.0625 492.222656 708.90625 490.382812 C 704.199219 486.363281 699.769531 492.898438 704.464844 492.28125 C 711.304688 491.386719 711.921875 491.289062 712.09375 495.902344 C 712.164062 497.667969 711.050781 497.574219 706.5 497.003906 " fill-opacity="1" fill-rule="nonzero"/><path fill="#1d3557" d="M 558.261719 434.945312 C 562.464844 429.984375 548.359375 427.550781 542.84375 419.886719 C 542.425781 419.292969 533.847656 411.644531 526.105469 409.078125 C 502.820312 401.363281 477.105469 431.328125 463.15625 426.882812 C 461.113281 428.058594 459.660156 429.984375 461.792969 431.035156 C 467.335938 433.773438 483.40625 423 502.683594 414.316406 C 530.339844 401.859375 553.742188 440.273438 558.261719 434.945312 " fill-opacity="1" fill-rule="nonzero"/><path fill="#1d3557" d="M 490 354.933594 C 492.371094 355.171875 506.488281 359.222656 507.066406 357.714844 C 507.183594 357.828125 486.769531 351.511719 482.8125 351.449219 C 482.359375 351.441406 479.542969 350.257812 476.46875 349.3125 C 474.453125 348.691406 477.238281 347.480469 475.925781 346.851562 C 474.804688 346.3125 473.054688 348.664062 472.433594 350.464844 C 471.421875 353.441406 477.21875 352.492188 468.65625 352.554688 C 464.632812 352.589844 458.195312 353.167969 455.234375 353.214844 C 452.199219 353.265625 451.503906 356.902344 453.089844 356.5 C 453.953125 356.285156 454.722656 355.023438 457.058594 355.058594 C 457.199219 355.058594 473.414062 353.269531 490 354.933594 " fill-opacity="1" fill-rule="nonzero"/><path fill="#1d3557" d="M 664.597656 526.09375 C 662.3125 525.671875 659.488281 529.679688 658.847656 529.21875 C 657.636719 528.371094 656.730469 529.195312 655.847656 529.640625 C 642.660156 536.386719 625.894531 530.054688 623.511719 535.027344 C 622.019531 538.128906 630.96875 534.53125 643.039062 535.632812 C 650.6875 534.195312 650.09375 535.753906 665.011719 527.5 C 665.265625 527.355469 665.894531 526.335938 664.597656 526.09375 " fill-opacity="1" fill-rule="nonzero"/><path fill="#1d3557" d="M 532.746094 561.214844 C 530.953125 560.511719 529.808594 563.417969 530.425781 564.363281 C 532.164062 567.039062 540.796875 563.394531 544.492188 561.046875 C 548.660156 558.394531 550.0625 559.460938 553.792969 556.84375 C 555.964844 555.332031 566.273438 553.03125 567.53125 551.953125 C 560.601562 548.382812 539.378906 563.816406 532.746094 561.214844 " fill-opacity="1" fill-rule="nonzero"/><path fill="#1d3557" d="M 788.082031 503.445312 C 773.980469 502.464844 751.835938 504.558594 751.714844 504.546875 C 749.585938 504.304688 747.925781 507.125 749.523438 507.328125 C 751.097656 507.535156 752.660156 508.09375 754.296875 507.523438 C 755.15625 507.234375 756.074219 507.027344 756.984375 506.941406 C 783.957031 504.691406 772.648438 503.902344 777.648438 504.351562 C 777.988281 504.375 778.363281 504.472656 778.675781 504.386719 C 781.148438 503.6875 786.230469 505.199219 788.773438 504.847656 C 791.980469 504.414062 797.902344 504.121094 788.082031 503.445312 " fill-opacity="1" fill-rule="nonzero"/><path fill="#1d3557" d="M 700.566406 517.800781 C 700.058594 517.996094 694.875 522.679688 708.316406 517.71875 C 734.972656 507.875 735.90625 509.605469 740.203125 507.789062 C 736.910156 505.476562 704.269531 516.386719 700.566406 517.800781 " fill-opacity="1" fill-rule="nonzero"/><path fill="#1d3557" d="M 898.347656 465.84375 C 885.25 471.046875 889.742188 466.109375 871.207031 475.199219 C 865.492188 477.996094 858.179688 478.410156 861.484375 479.859375 C 869.269531 477.332031 869.207031 478.722656 871.726562 476.882812 C 880.445312 470.492188 900.238281 470.199219 902.355469 464.523438 C 900.636719 464.195312 902.234375 464.292969 898.347656 465.84375 " fill-opacity="1" fill-rule="nonzero"/><path fill="#1d3557" d="M 944 339.574219 C 945.226562 339.855469 992.34375 329.832031 994.183594 326.53125 C 990.914062 326.171875 992.5625 328.367188 970.539062 332.839844 C 970.40625 332.867188 946.070312 337.078125 944 339.574219 " fill-opacity="1" fill-rule="nonzero"/><g clip-path="url(#af8ee5123a)"><path fill="#1d3557" d="M 513.246094 571.492188 C 501.707031 572.59375 494.25 570.304688 495.890625 575.511719 C 496.230469 576.589844 495.585938 576.589844 511.003906 574 C 511.0625 574.300781 513.425781 573.707031 513.542969 573.683594 C 516.402344 572.96875 515.683594 571.273438 513.246094 571.492188 " fill-opacity="1" fill-rule="nonzero"/></g><path fill="#1d3557" d="M 520.300781 566.289062 C 520.121094 565.585938 520.535156 565.320312 517.890625 562.605469 C 516.960938 561.652344 515.28125 565.039062 515.960938 566.734375 C 517.648438 570.960938 518.605469 569.785156 519.476562 574.554688 C 522.957031 573.40625 519.257812 569.484375 520.300781 566.289062 " fill-opacity="1" fill-rule="nonzero"/><path fill="#1d3557" d="M 694.9375 519.691406 C 693.121094 520.816406 690.722656 520.015625 688.761719 519.496094 C 687.203125 519.085938 687.175781 518.902344 685.75 522.71875 C 685.6875 522.898438 685.894531 523.226562 686.0625 523.417969 C 686.183594 523.550781 687.566406 522.546875 687.699219 522.65625 C 689.378906 524.15625 695.519531 522.085938 696.0625 521.675781 C 697.636719 520.476562 696.378906 518.78125 694.9375 519.691406 " fill-opacity="1" fill-rule="nonzero"/><path fill="#1d3557" d="M 705.15625 505.914062 C 703.628906 503.527344 701.984375 507.183594 700.277344 505.648438 C 699.113281 504.59375 695.238281 503.589844 694.054688 506.566406 C 692.976562 509.292969 697.007812 507.621094 697.128906 508.382812 C 705.105469 506.847656 705.871094 507.015625 705.15625 505.914062 " fill-opacity="1" fill-rule="nonzero"/><path fill="#1d3557" d="M 892.089844 384.332031 C 890.417969 383.035156 889.125 383.285156 886.265625 382.542969 C 884.582031 382.109375 884.160156 382.234375 883.90625 383.953125 C 883.53125 386.523438 882.996094 386.71875 886.21875 386.910156 C 887.003906 386.777344 887.816406 386.742188 888.554688 386.488281 C 889.621094 386.132812 890.492188 385.308594 891.75 385.433594 C 892.367188 385.488281 892.597656 384.722656 892.089844 384.332031 " fill-opacity="1" fill-rule="nonzero"/><path fill="#1d3557" d="M 511.230469 359.148438 C 544.507812 364.335938 519.785156 358.304688 517.84375 359.160156 C 516.855469 358.273438 515.855469 358.78125 513.5625 358.195312 C 508.6875 356.945312 506.191406 355.828125 507.082031 357.707031 C 507.234375 357.613281 510.71875 359.066406 511.230469 359.148438 " fill-opacity="1" fill-rule="nonzero"/><path fill="#1d3557" d="M 507.101562 357.753906 C 507.097656 357.738281 507.09375 357.726562 507.082031 357.707031 C 507.074219 357.714844 507.078125 357.730469 507.101562 357.753906 " fill-opacity="1" fill-rule="nonzero"/><path fill="#1d3557" d="M 603.535156 536.554688 C 602.53125 537.644531 601.222656 537.402344 600.121094 539.167969 C 602.613281 539.628906 605.59375 536.144531 611.332031 536.820312 C 611.332031 536.820312 611.574219 536.710938 611.804688 536.601562 C 609.199219 534.121094 604.949219 535.003906 603.535156 536.554688 " fill-opacity="1" fill-rule="nonzero"/><path fill="#1d3557" d="M 543.777344 362.207031 C 544.644531 362.175781 544.101562 361.4375 543.808594 361.347656 C 534.152344 358.546875 524.175781 363.0625 543.777344 362.207031 " fill-opacity="1" fill-rule="nonzero"/><path fill="#1d3557" d="M 848.375 343.15625 C 850.335938 343.15625 849.707031 343.269531 850.746094 342.777344 C 845.734375 340.886719 809.199219 338.785156 848.375 343.15625 " fill-opacity="1" fill-rule="nonzero"/><path fill="#1d3557" d="M 852.949219 342.84375 C 856.691406 344.128906 870.734375 344.015625 872.136719 343.484375 C 870.636719 342.878906 855.140625 342.613281 852.949219 342.84375 " fill-opacity="1" fill-rule="nonzero"/><path fill="#1d3557" d="M 562.253906 360.507812 C 562.652344 360.441406 563.011719 360.199219 563.386719 360.03125 C 561.660156 359.398438 563.15625 359.484375 555.445312 360.15625 C 555.390625 359.804688 553.339844 359.894531 553.988281 360.324219 C 556.105469 361.746094 554.898438 361.785156 562.253906 360.507812 " fill-opacity="1" fill-rule="nonzero"/><path fill="#1d3557" d="M 773.605469 494.039062 C 774.148438 493.988281 773.6875 494.195312 775.3125 493.324219 C 772.308594 489.523438 769.234375 494.109375 773.605469 494.039062 " fill-opacity="1" fill-rule="nonzero"/><path fill="#1d3557" d="M 755.53125 318.828125 C 757.539062 317.628906 753.605469 317.097656 750.710938 316.378906 C 749.875 316.167969 749.839844 317.597656 755.53125 318.828125 " fill-opacity="1" fill-rule="nonzero"/><path fill="#1d3557" d="M 1002.574219 290.796875 C 1003.878906 290.410156 1005.574219 287.699219 998.867188 291.230469 C 998.746094 291.296875 997.851562 292.199219 1002.574219 290.796875 " fill-opacity="1" fill-rule="nonzero"/><path fill="#1d3557" d="M 1008.808594 287.351562 C 1008.03125 286.828125 1008.902344 286.574219 1005.164062 288.414062 C 1005.285156 288.621094 1005.476562 289.03125 1005.515625 289.019531 C 1009.242188 287.664062 1008.660156 287.785156 1008.808594 287.351562 " fill-opacity="1" fill-rule="nonzero"/><path fill="#1d3557" d="M 763.917969 508.128906 C 763.859375 508.105469 763.652344 508.417969 763.519531 508.589844 C 765.128906 509.882812 765.15625 510.175781 766.074219 509.582031 C 765.988281 509.121094 766.449219 509.195312 763.917969 508.128906 " fill-opacity="1" fill-rule="nonzero"/><path fill="#1d3557" d="M 759.535156 495.660156 C 758.882812 497.183594 756.28125 497.210938 757.199219 497.921875 C 757.902344 497.730469 758.691406 497.644531 759.308594 497.304688 C 760.480469 496.664062 759.804688 495.03125 759.535156 495.660156 " fill-opacity="1" fill-rule="nonzero"/><path fill="#1d3557" d="M 893.011719 361.777344 C 894.984375 363.4375 898.652344 362.828125 893.820312 361.523438 C 893.519531 361.617188 893.265625 361.699219 893.011719 361.777344 " fill-opacity="1" fill-rule="nonzero"/><path fill="#1d3557" d="M 893.371094 389.402344 C 890.925781 388.300781 891.640625 388.507812 890.746094 388.835938 C 891.363281 389.523438 890.636719 389.402344 893.371094 389.402344 " fill-opacity="1" fill-rule="nonzero"/><path fill="#1d3557" d="M 566.476562 332.113281 C 565.382812 331.664062 565.867188 331.488281 564.679688 332.65625 C 565.464844 332.808594 564.996094 332.972656 566.476562 332.113281 " fill-opacity="1" fill-rule="nonzero"/><path fill="#1d3557" d="M 523.28125 347.1875 C 523.058594 346.75 523.304688 346.761719 522.203125 347.0625 C 522.359375 347.386719 522.097656 347.359375 523.28125 347.1875 " fill-opacity="1" fill-rule="nonzero"/><path fill="#1d3557" d="M 589.34375 354.730469 C 587.503906 354.695312 587.917969 354.613281 587.566406 354.980469 C 589.601562 354.859375 589.320312 354.921875 589.34375 354.730469 " fill-opacity="1" fill-rule="nonzero"/><path fill="#1d3557" d="M 970.613281 405.433594 C 970.648438 405.421875 970.671875 405.394531 970.707031 405.371094 C 970.550781 405.324219 970.476562 405.285156 970.613281 405.433594 " fill-opacity="1" fill-rule="nonzero"/><path fill="#1d3557" d="M 972.039062 404.972656 C 972.234375 404.453125 971.300781 405.03125 970.707031 405.371094 C 971.035156 405.492188 971.75 405.746094 972.039062 404.972656 " fill-opacity="1" fill-rule="nonzero"/><path fill="#1d3557" d="M 941.035156 338.019531 C 941.253906 338.265625 941.097656 338.277344 941.628906 338.070312 C 941.363281 337.761719 941.519531 337.75 941.035156 338.019531 " fill-opacity="1" fill-rule="nonzero"/><path fill="#1d3557" d="M 942.160156 340.015625 C 941.847656 339.8125 942.039062 339.769531 941.472656 340.058594 C 941.796875 340.304688 941.617188 340.355469 942.160156 340.015625 " fill-opacity="1" fill-rule="nonzero"/><path fill="#1d3557" d="M 703.910156 381.933594 C 710.359375 372.683594 713.664062 372.800781 713.652344 370.324219 C 712.164062 370.726562 705.144531 376.476562 702.347656 381.6875 C 702.625 382.230469 702.890625 383.398438 703.910156 381.933594 " fill-opacity="1" fill-rule="nonzero"/><path fill="#1d3557" d="M 718.289062 376.058594 C 719.390625 375.148438 718.4375 374.128906 717.285156 375.296875 C 708.992188 383.707031 711.171875 381.300781 709.550781 384.601562 C 710.445312 387.671875 711.703125 381.535156 718.289062 376.058594 " fill-opacity="1" fill-rule="nonzero"/><path fill="#1d3557" d="M 717.914062 385.351562 C 725.734375 375.511719 724.1875 378.734375 725.761719 376.675781 C 724.914062 374.101562 717.746094 383.011719 716.714844 384.515625 C 715.941406 385.640625 716.621094 386.984375 717.914062 385.351562 " fill-opacity="1" fill-rule="nonzero"/><path fill="#1d3557" d="M 707.140625 382.074219 C 707.902344 383.863281 719.136719 371.804688 711.535156 377.042969 C 709.355469 378.546875 707.296875 378.609375 707.140625 382.074219 " fill-opacity="1" fill-rule="nonzero"/></svg>